<?xml version="1.0" encoding="utf-8" standalone="no"?>
<!DOCTYPE svg PUBLIC "-//W3C//DTD SVG 1.1//EN"
  "http://www.w3.org/Graphics/SVG/1.1/DTD/svg11.dtd">
<svg xmlns:xlink="http://www.w3.org/1999/xlink" width="460.8pt" height="345.6pt" viewBox="0 0 460.8 345.6" xmlns="http://www.w3.org/2000/svg" version="1.1">
 <metadata>
  <rdf:RDF xmlns:dc="http://purl.org/dc/elements/1.1/" xmlns:cc="http://creativecommons.org/ns#" xmlns:rdf="http://www.w3.org/1999/02/22-rdf-syntax-ns#">
   <cc:Work>
    <dc:type rdf:resource="http://purl.org/dc/dcmitype/StillImage"/>
    <dc:date>2024-03-14T16:00:37.475180</dc:date>
    <dc:format>image/svg+xml</dc:format>
    <dc:creator>
     <cc:Agent>
      <dc:title>Matplotlib v3.7.1, https://matplotlib.org/</dc:title>
     </cc:Agent>
    </dc:creator>
   </cc:Work>
  </rdf:RDF>
 </metadata>
 <defs>
  <style type="text/css">*{stroke-linejoin: round; stroke-linecap: butt}</style>
 </defs>
 <g id="figure_1">
  <g id="patch_1">
   <path d="M 0 345.6 
L 460.8 345.6 
L 460.8 0 
L 0 0 
z
" style="fill: #ffffff"/>
  </g>
  <g id="axes_1">
   <g id="patch_2">
    <path d="M 42.01 317.72 
L 450 317.72 
L 450 26.88 
L 42.01 26.88 
z
" style="fill: #ffffff"/>
   </g>
   <g id="matplotlib.axis_1">
    <g id="xtick_1">
     <g id="line2d_1">
      <defs>
       <path id="m2ef6c7f0c3" d="M 0 0 
L 0 3.5 
" style="stroke: #000000; stroke-width: 0.8"/>
      </defs>
      <g>
       <use xlink:href="#m2ef6c7f0c3" x="60.555" y="317.72" style="stroke: #000000; stroke-width: 0.8"/>
      </g>
     </g>
     <g id="text_1">
      <!-- 0 -->
      <g transform="translate(57.37375 332.318437) scale(0.1 -0.1)">
       <defs>
        <path id="DejaVuSans-30" d="M 2034 4250 
Q 1547 4250 1301 3770 
Q 1056 3291 1056 2328 
Q 1056 1369 1301 889 
Q 1547 409 2034 409 
Q 2525 409 2770 889 
Q 3016 1369 3016 2328 
Q 3016 3291 2770 3770 
Q 2525 4250 2034 4250 
z
M 2034 4750 
Q 2819 4750 3233 4129 
Q 3647 3509 3647 2328 
Q 3647 1150 3233 529 
Q 2819 -91 2034 -91 
Q 1250 -91 836 529 
Q 422 1150 422 2328 
Q 422 3509 836 4129 
Q 1250 4750 2034 4750 
z
" transform="scale(0.015625)"/>
       </defs>
       <use xlink:href="#DejaVuSans-30"/>
      </g>
     </g>
    </g>
    <g id="xtick_2">
     <g id="line2d_2">
      <g>
       <use xlink:href="#m2ef6c7f0c3" x="134.735" y="317.72" style="stroke: #000000; stroke-width: 0.8"/>
      </g>
     </g>
     <g id="text_2">
      <!-- 10 -->
      <g transform="translate(128.3725 332.318437) scale(0.1 -0.1)">
       <defs>
        <path id="DejaVuSans-31" d="M 794 531 
L 1825 531 
L 1825 4091 
L 703 3866 
L 703 4441 
L 1819 4666 
L 2450 4666 
L 2450 531 
L 3481 531 
L 3481 0 
L 794 0 
L 794 531 
z
" transform="scale(0.015625)"/>
       </defs>
       <use xlink:href="#DejaVuSans-31"/>
       <use xlink:href="#DejaVuSans-30" x="63.623047"/>
      </g>
     </g>
    </g>
    <g id="xtick_3">
     <g id="line2d_3">
      <g>
       <use xlink:href="#m2ef6c7f0c3" x="208.915" y="317.72" style="stroke: #000000; stroke-width: 0.8"/>
      </g>
     </g>
     <g id="text_3">
      <!-- 20 -->
      <g transform="translate(202.5525 332.318437) scale(0.1 -0.1)">
       <defs>
        <path id="DejaVuSans-32" d="M 1228 531 
L 3431 531 
L 3431 0 
L 469 0 
L 469 531 
Q 828 903 1448 1529 
Q 2069 2156 2228 2338 
Q 2531 2678 2651 2914 
Q 2772 3150 2772 3378 
Q 2772 3750 2511 3984 
Q 2250 4219 1831 4219 
Q 1534 4219 1204 4116 
Q 875 4013 500 3803 
L 500 4441 
Q 881 4594 1212 4672 
Q 1544 4750 1819 4750 
Q 2544 4750 2975 4387 
Q 3406 4025 3406 3419 
Q 3406 3131 3298 2873 
Q 3191 2616 2906 2266 
Q 2828 2175 2409 1742 
Q 1991 1309 1228 531 
z
" transform="scale(0.015625)"/>
       </defs>
       <use xlink:href="#DejaVuSans-32"/>
       <use xlink:href="#DejaVuSans-30" x="63.623047"/>
      </g>
     </g>
    </g>
    <g id="xtick_4">
     <g id="line2d_4">
      <g>
       <use xlink:href="#m2ef6c7f0c3" x="283.095" y="317.72" style="stroke: #000000; stroke-width: 0.8"/>
      </g>
     </g>
     <g id="text_4">
      <!-- 30 -->
      <g transform="translate(276.7325 332.318437) scale(0.1 -0.1)">
       <defs>
        <path id="DejaVuSans-33" d="M 2597 2516 
Q 3050 2419 3304 2112 
Q 3559 1806 3559 1356 
Q 3559 666 3084 287 
Q 2609 -91 1734 -91 
Q 1441 -91 1130 -33 
Q 819 25 488 141 
L 488 750 
Q 750 597 1062 519 
Q 1375 441 1716 441 
Q 2309 441 2620 675 
Q 2931 909 2931 1356 
Q 2931 1769 2642 2001 
Q 2353 2234 1838 2234 
L 1294 2234 
L 1294 2753 
L 1863 2753 
Q 2328 2753 2575 2939 
Q 2822 3125 2822 3475 
Q 2822 3834 2567 4026 
Q 2313 4219 1838 4219 
Q 1578 4219 1281 4162 
Q 984 4106 628 3988 
L 628 4550 
Q 988 4650 1302 4700 
Q 1616 4750 1894 4750 
Q 2613 4750 3031 4423 
Q 3450 4097 3450 3541 
Q 3450 3153 3228 2886 
Q 3006 2619 2597 2516 
z
" transform="scale(0.015625)"/>
       </defs>
       <use xlink:href="#DejaVuSans-33"/>
       <use xlink:href="#DejaVuSans-30" x="63.623047"/>
      </g>
     </g>
    </g>
    <g id="xtick_5">
     <g id="line2d_5">
      <g>
       <use xlink:href="#m2ef6c7f0c3" x="357.275" y="317.72" style="stroke: #000000; stroke-width: 0.8"/>
      </g>
     </g>
     <g id="text_5">
      <!-- 40 -->
      <g transform="translate(350.9125 332.318437) scale(0.1 -0.1)">
       <defs>
        <path id="DejaVuSans-34" d="M 2419 4116 
L 825 1625 
L 2419 1625 
L 2419 4116 
z
M 2253 4666 
L 3047 4666 
L 3047 1625 
L 3713 1625 
L 3713 1100 
L 3047 1100 
L 3047 0 
L 2419 0 
L 2419 1100 
L 313 1100 
L 313 1709 
L 2253 4666 
z
" transform="scale(0.015625)"/>
       </defs>
       <use xlink:href="#DejaVuSans-34"/>
       <use xlink:href="#DejaVuSans-30" x="63.623047"/>
      </g>
     </g>
    </g>
    <g id="xtick_6">
     <g id="line2d_6">
      <g>
       <use xlink:href="#m2ef6c7f0c3" x="431.455" y="317.72" style="stroke: #000000; stroke-width: 0.8"/>
      </g>
     </g>
     <g id="text_6">
      <!-- 50 -->
      <g transform="translate(425.0925 332.318437) scale(0.1 -0.1)">
       <defs>
        <path id="DejaVuSans-35" d="M 691 4666 
L 3169 4666 
L 3169 4134 
L 1269 4134 
L 1269 2991 
Q 1406 3038 1543 3061 
Q 1681 3084 1819 3084 
Q 2600 3084 3056 2656 
Q 3513 2228 3513 1497 
Q 3513 744 3044 326 
Q 2575 -91 1722 -91 
Q 1428 -91 1123 -41 
Q 819 9 494 109 
L 494 744 
Q 775 591 1075 516 
Q 1375 441 1709 441 
Q 2250 441 2565 725 
Q 2881 1009 2881 1497 
Q 2881 1984 2565 2268 
Q 2250 2553 1709 2553 
Q 1456 2553 1204 2497 
Q 953 2441 691 2322 
L 691 4666 
z
" transform="scale(0.015625)"/>
       </defs>
       <use xlink:href="#DejaVuSans-35"/>
       <use xlink:href="#DejaVuSans-30" x="63.623047"/>
      </g>
     </g>
    </g>
   </g>
   <g id="matplotlib.axis_2">
    <g id="ytick_1">
     <g id="line2d_7">
      <defs>
       <path id="me166868931" d="M 0 0 
L -3.5 0 
" style="stroke: #000000; stroke-width: 0.8"/>
      </defs>
      <g>
       <use xlink:href="#me166868931" x="42.01" y="314.926184" style="stroke: #000000; stroke-width: 0.8"/>
      </g>
     </g>
     <g id="text_7">
      <!-- −0.4 -->
      <g transform="translate(10.727187 318.725402) scale(0.1 -0.1)">
       <defs>
        <path id="DejaVuSans-2212" d="M 678 2272 
L 4684 2272 
L 4684 1741 
L 678 1741 
L 678 2272 
z
" transform="scale(0.015625)"/>
        <path id="DejaVuSans-2e" d="M 684 794 
L 1344 794 
L 1344 0 
L 684 0 
L 684 794 
z
" transform="scale(0.015625)"/>
       </defs>
       <use xlink:href="#DejaVuSans-2212"/>
       <use xlink:href="#DejaVuSans-30" x="83.789062"/>
       <use xlink:href="#DejaVuSans-2e" x="147.412109"/>
       <use xlink:href="#DejaVuSans-34" x="179.199219"/>
      </g>
     </g>
    </g>
    <g id="ytick_2">
     <g id="line2d_8">
      <g>
       <use xlink:href="#me166868931" x="42.01" y="278.783193" style="stroke: #000000; stroke-width: 0.8"/>
      </g>
     </g>
     <g id="text_8">
      <!-- −0.3 -->
      <g transform="translate(10.727187 282.582411) scale(0.1 -0.1)">
       <use xlink:href="#DejaVuSans-2212"/>
       <use xlink:href="#DejaVuSans-30" x="83.789062"/>
       <use xlink:href="#DejaVuSans-2e" x="147.412109"/>
       <use xlink:href="#DejaVuSans-33" x="179.199219"/>
      </g>
     </g>
    </g>
    <g id="ytick_3">
     <g id="line2d_9">
      <g>
       <use xlink:href="#me166868931" x="42.01" y="242.640202" style="stroke: #000000; stroke-width: 0.8"/>
      </g>
     </g>
     <g id="text_9">
      <!-- −0.2 -->
      <g transform="translate(10.727187 246.43942) scale(0.1 -0.1)">
       <use xlink:href="#DejaVuSans-2212"/>
       <use xlink:href="#DejaVuSans-30" x="83.789062"/>
       <use xlink:href="#DejaVuSans-2e" x="147.412109"/>
       <use xlink:href="#DejaVuSans-32" x="179.199219"/>
      </g>
     </g>
    </g>
    <g id="ytick_4">
     <g id="line2d_10">
      <g>
       <use xlink:href="#me166868931" x="42.01" y="206.497211" style="stroke: #000000; stroke-width: 0.8"/>
      </g>
     </g>
     <g id="text_10">
      <!-- −0.1 -->
      <g transform="translate(10.727187 210.296429) scale(0.1 -0.1)">
       <use xlink:href="#DejaVuSans-2212"/>
       <use xlink:href="#DejaVuSans-30" x="83.789062"/>
       <use xlink:href="#DejaVuSans-2e" x="147.412109"/>
       <use xlink:href="#DejaVuSans-31" x="179.199219"/>
      </g>
     </g>
    </g>
    <g id="ytick_5">
     <g id="line2d_11">
      <g>
       <use xlink:href="#me166868931" x="42.01" y="170.35422" style="stroke: #000000; stroke-width: 0.8"/>
      </g>
     </g>
     <g id="text_11">
      <!-- 0.0 -->
      <g transform="translate(19.106875 174.153438) scale(0.1 -0.1)">
       <use xlink:href="#DejaVuSans-30"/>
       <use xlink:href="#DejaVuSans-2e" x="63.623047"/>
       <use xlink:href="#DejaVuSans-30" x="95.410156"/>
      </g>
     </g>
    </g>
    <g id="ytick_6">
     <g id="line2d_12">
      <g>
       <use xlink:href="#me166868931" x="42.01" y="134.211229" style="stroke: #000000; stroke-width: 0.8"/>
      </g>
     </g>
     <g id="text_12">
      <!-- 0.1 -->
      <g transform="translate(19.106875 138.010447) scale(0.1 -0.1)">
       <use xlink:href="#DejaVuSans-30"/>
       <use xlink:href="#DejaVuSans-2e" x="63.623047"/>
       <use xlink:href="#DejaVuSans-31" x="95.410156"/>
      </g>
     </g>
    </g>
    <g id="ytick_7">
     <g id="line2d_13">
      <g>
       <use xlink:href="#me166868931" x="42.01" y="98.068237" style="stroke: #000000; stroke-width: 0.8"/>
      </g>
     </g>
     <g id="text_13">
      <!-- 0.2 -->
      <g transform="translate(19.106875 101.867456) scale(0.1 -0.1)">
       <use xlink:href="#DejaVuSans-30"/>
       <use xlink:href="#DejaVuSans-2e" x="63.623047"/>
       <use xlink:href="#DejaVuSans-32" x="95.410156"/>
      </g>
     </g>
    </g>
    <g id="ytick_8">
     <g id="line2d_14">
      <g>
       <use xlink:href="#me166868931" x="42.01" y="61.925246" style="stroke: #000000; stroke-width: 0.8"/>
      </g>
     </g>
     <g id="text_14">
      <!-- 0.3 -->
      <g transform="translate(19.106875 65.724465) scale(0.1 -0.1)">
       <use xlink:href="#DejaVuSans-30"/>
       <use xlink:href="#DejaVuSans-2e" x="63.623047"/>
       <use xlink:href="#DejaVuSans-33" x="95.410156"/>
      </g>
     </g>
    </g>
   </g>
   <g id="line2d_15">
    <path d="M 60.555 246.008264 
L 67.973 246.445043 
L 75.391 246.570543 
L 82.809 246.606602 
L 90.227 246.616963 
L 97.645 246.619941 
L 105.063 246.620796 
L 112.481 246.621042 
L 119.899 246.621112 
L 127.317 246.621133 
L 134.735 246.621138 
L 142.153 246.62114 
L 149.571 246.621141 
L 156.989 246.621141 
L 164.407 246.621141 
L 171.825 246.621141 
L 179.243 246.621141 
L 186.661 246.621141 
L 194.079 246.621141 
L 201.497 246.621141 
L 208.915 246.621141 
L 216.333 246.621141 
L 223.751 246.621141 
L 231.169 246.621141 
L 238.587 246.621141 
L 246.005 246.621141 
L 253.423 246.621141 
L 260.841 246.621141 
L 268.259 246.621141 
L 275.677 246.621141 
L 283.095 246.621141 
L 290.513 246.621141 
L 297.931 246.621141 
L 305.349 246.621141 
L 312.767 246.621141 
L 320.185 246.621141 
L 327.603 246.621141 
L 335.021 246.621141 
L 342.439 246.621141 
L 349.857 246.621141 
L 357.275 246.621141 
L 364.693 246.621141 
L 372.111 246.621141 
L 379.529 246.621141 
L 386.947 246.621141 
L 394.365 246.621141 
L 401.783 246.621141 
L 409.201 246.621141 
L 416.619 246.621141 
L 424.037 246.621141 
L 431.455 246.621141 
" clip-path="url(#pd4fedd591a)" style="fill: none; stroke: #1f77b4; stroke-width: 1.5; stroke-linecap: square"/>
   </g>
   <g id="line2d_16">
    <path d="M 60.555 40.1 
L 67.973 243.022653 
L 75.391 261.993734 
L 82.809 274.909009 
L 90.227 291.710858 
L 97.645 304.5 
L 105.063 304.5 
L 112.481 304.5 
L 119.899 304.5 
L 127.317 304.5 
L 134.735 304.5 
L 142.153 304.5 
L 149.571 304.5 
L 156.989 304.5 
L 164.407 304.5 
L 171.825 304.5 
L 179.243 304.5 
L 186.661 304.5 
L 194.079 304.5 
L 201.497 304.5 
L 208.915 304.5 
L 216.333 304.5 
L 223.751 304.5 
L 231.169 304.5 
L 238.587 304.5 
L 246.005 304.5 
L 253.423 304.5 
L 260.841 304.5 
L 268.259 304.5 
L 275.677 304.5 
L 283.095 304.5 
L 290.513 304.5 
L 297.931 304.5 
L 305.349 304.5 
L 312.767 304.5 
L 320.185 304.5 
L 327.603 304.5 
L 335.021 304.5 
L 342.439 304.5 
L 349.857 304.5 
L 357.275 304.5 
L 364.693 304.5 
L 372.111 304.5 
L 379.529 304.5 
L 386.947 304.5 
L 394.365 304.5 
L 401.783 304.5 
L 409.201 304.5 
L 416.619 304.5 
L 424.037 304.5 
L 431.455 304.5 
" clip-path="url(#pd4fedd591a)" style="fill: none; stroke: #ff7f0e; stroke-width: 1.5; stroke-linecap: square"/>
   </g>
   <g id="line2d_17">
    <path d="M 60.555 246.008264 
L 67.973 246.445043 
L 75.391 246.570543 
L 82.809 246.606602 
L 90.227 246.616963 
L 97.645 246.619941 
L 105.063 246.620796 
L 112.481 246.621042 
L 119.899 246.621112 
L 127.317 246.621133 
L 134.735 246.621138 
L 142.153 246.62114 
L 149.571 246.621141 
L 156.989 246.621141 
L 164.407 246.621141 
L 171.825 246.621141 
L 179.243 246.621141 
L 186.661 246.621141 
L 194.079 246.621141 
L 201.497 246.621141 
L 208.915 246.621141 
L 216.333 246.621141 
L 223.751 246.621141 
L 231.169 246.621141 
L 238.587 246.621141 
L 246.005 246.621141 
L 253.423 246.621141 
L 260.841 246.621141 
L 268.259 246.621141 
L 275.677 246.621141 
L 283.095 246.621141 
L 290.513 246.621141 
L 297.931 246.621141 
L 305.349 246.621141 
L 312.767 246.621141 
L 320.185 246.621141 
L 327.603 246.621141 
L 335.021 246.621141 
L 342.439 246.621141 
L 349.857 246.621141 
L 357.275 246.621141 
L 364.693 246.621141 
L 372.111 246.621141 
L 379.529 246.621141 
L 386.947 246.621141 
L 394.365 246.621141 
L 401.783 246.621141 
L 409.201 246.621141 
L 416.619 246.621141 
L 424.037 246.621141 
L 431.455 246.621141 
" clip-path="url(#pd4fedd591a)" style="fill: none; stroke: #2ca02c; stroke-width: 1.5; stroke-linecap: square"/>
   </g>
   <g id="line2d_18">
    <path d="M 60.555 40.1 
L 67.973 243.022653 
L 75.391 261.993734 
L 82.809 274.909009 
L 90.227 291.710858 
L 97.645 304.5 
L 105.063 304.5 
L 112.481 304.5 
L 119.899 304.5 
L 127.317 304.5 
L 134.735 304.5 
L 142.153 304.5 
L 149.571 304.5 
L 156.989 304.5 
L 164.407 304.5 
L 171.825 304.5 
L 179.243 304.5 
L 186.661 304.5 
L 194.079 304.5 
L 201.497 304.5 
L 208.915 304.5 
L 216.333 304.5 
L 223.751 304.5 
L 231.169 304.5 
L 238.587 304.5 
L 246.005 304.5 
L 253.423 304.5 
L 260.841 304.5 
L 268.259 304.5 
L 275.677 304.5 
L 283.095 304.5 
L 290.513 304.5 
L 297.931 304.5 
L 305.349 304.5 
L 312.767 304.5 
L 320.185 304.5 
L 327.603 304.5 
L 335.021 304.5 
L 342.439 304.5 
L 349.857 304.5 
L 357.275 304.5 
L 364.693 304.5 
L 372.111 304.5 
L 379.529 304.5 
L 386.947 304.5 
L 394.365 304.5 
L 401.783 304.5 
L 409.201 304.5 
L 416.619 304.5 
L 424.037 304.5 
L 431.455 304.5 
" clip-path="url(#pd4fedd591a)" style="fill: none; stroke: #d62728; stroke-width: 1.5; stroke-linecap: square"/>
   </g>
   <g id="line2d_19">
    <path d="M 60.555 246.008264 
L 67.973 246.445043 
L 75.391 246.570543 
L 82.809 246.606602 
L 90.227 246.616963 
L 97.645 246.619941 
L 105.063 246.620796 
L 112.481 246.621042 
L 119.899 246.621112 
L 127.317 246.621133 
L 134.735 246.621138 
L 142.153 246.62114 
L 149.571 246.621141 
L 156.989 246.621141 
L 164.407 246.621141 
L 171.825 246.621141 
L 179.243 246.621141 
L 186.661 246.621141 
L 194.079 246.621141 
L 201.497 246.621141 
L 208.915 246.621141 
L 216.333 246.621141 
L 223.751 246.621141 
L 231.169 246.621141 
L 238.587 246.621141 
L 246.005 246.621141 
L 253.423 246.621141 
L 260.841 246.621141 
L 268.259 246.621141 
L 275.677 246.621141 
L 283.095 246.621141 
L 290.513 246.621141 
L 297.931 246.621141 
L 305.349 246.621141 
L 312.767 246.621141 
L 320.185 246.621141 
L 327.603 246.621141 
L 335.021 246.621141 
L 342.439 246.621141 
L 349.857 246.621141 
L 357.275 246.621141 
L 364.693 246.621141 
L 372.111 246.621141 
L 379.529 246.621141 
L 386.947 246.621141 
L 394.365 246.621141 
L 401.783 246.621141 
L 409.201 246.621141 
L 416.619 246.621141 
L 424.037 246.621141 
L 431.455 246.621141 
" clip-path="url(#pd4fedd591a)" style="fill: none; stroke: #9467bd; stroke-width: 1.5; stroke-linecap: square"/>
   </g>
   <g id="line2d_20">
    <path d="M 60.555 40.1 
L 67.973 243.022653 
L 75.391 261.993734 
L 82.809 274.909009 
L 90.227 291.710858 
L 97.645 304.5 
L 105.063 304.5 
L 112.481 304.5 
L 119.899 304.5 
L 127.317 304.5 
L 134.735 304.5 
L 142.153 304.5 
L 149.571 304.5 
L 156.989 304.5 
L 164.407 304.5 
L 171.825 304.5 
L 179.243 304.5 
L 186.661 304.5 
L 194.079 304.5 
L 201.497 304.5 
L 208.915 304.5 
L 216.333 304.5 
L 223.751 304.5 
L 231.169 304.5 
L 238.587 304.5 
L 246.005 304.5 
L 253.423 304.5 
L 260.841 304.5 
L 268.259 304.5 
L 275.677 304.5 
L 283.095 304.5 
L 290.513 304.5 
L 297.931 304.5 
L 305.349 304.5 
L 312.767 304.5 
L 320.185 304.5 
L 327.603 304.5 
L 335.021 304.5 
L 342.439 304.5 
L 349.857 304.5 
L 357.275 304.5 
L 364.693 304.5 
L 372.111 304.5 
L 379.529 304.5 
L 386.947 304.5 
L 394.365 304.5 
L 401.783 304.5 
L 409.201 304.5 
L 416.619 304.5 
L 424.037 304.5 
L 431.455 304.5 
" clip-path="url(#pd4fedd591a)" style="fill: none; stroke: #8c564b; stroke-width: 1.5; stroke-linecap: square"/>
   </g>
   <g id="line2d_21">
    <path d="M 60.555 170.35422 
L 67.973 224.159811 
L 75.391 226.838633 
L 82.809 226.972004 
L 90.227 226.978644 
L 97.645 226.978975 
L 105.063 226.978991 
L 112.481 226.978992 
L 119.899 226.978992 
L 127.317 226.978992 
L 134.735 226.978992 
L 142.153 226.978992 
L 149.571 226.978992 
L 156.989 226.978992 
L 164.407 226.978992 
L 171.825 226.978992 
L 179.243 226.978992 
L 186.661 226.978992 
L 194.079 226.978992 
L 201.497 226.978992 
L 208.915 226.978992 
L 216.333 226.978992 
L 223.751 226.978992 
L 231.169 226.978992 
L 238.587 226.978992 
L 246.005 226.978992 
L 253.423 226.978992 
L 260.841 226.978992 
L 268.259 226.978992 
L 275.677 226.978992 
L 283.095 226.978992 
L 290.513 226.978992 
L 297.931 226.978992 
L 305.349 226.978992 
L 312.767 226.978992 
L 320.185 226.978992 
L 327.603 226.978992 
L 335.021 226.978992 
L 342.439 226.978992 
L 349.857 226.978992 
L 357.275 226.978992 
L 364.693 226.978992 
L 372.111 226.978992 
L 379.529 226.978992 
L 386.947 226.978992 
L 394.365 226.978992 
L 401.783 226.978992 
L 409.201 226.978992 
L 416.619 226.978992 
L 424.037 226.978992 
L 431.455 226.978992 
" clip-path="url(#pd4fedd591a)" style="fill: none; stroke: #e377c2; stroke-width: 1.5; stroke-linecap: square"/>
   </g>
   <g id="patch_3">
    <path d="M 42.01 317.72 
L 42.01 26.88 
" style="fill: none; stroke: #000000; stroke-width: 0.8; stroke-linejoin: miter; stroke-linecap: square"/>
   </g>
   <g id="patch_4">
    <path d="M 450 317.72 
L 450 26.88 
" style="fill: none; stroke: #000000; stroke-width: 0.8; stroke-linejoin: miter; stroke-linecap: square"/>
   </g>
   <g id="patch_5">
    <path d="M 42.01 317.72 
L 450 317.72 
" style="fill: none; stroke: #000000; stroke-width: 0.8; stroke-linejoin: miter; stroke-linecap: square"/>
   </g>
   <g id="patch_6">
    <path d="M 42.01 26.88 
L 450 26.88 
" style="fill: none; stroke: #000000; stroke-width: 0.8; stroke-linejoin: miter; stroke-linecap: square"/>
   </g>
   <g id="text_15">
    <!-- Energy evolution of the states -->
    <g transform="translate(155.539062 20.88) scale(0.12 -0.12)">
     <defs>
      <path id="DejaVuSans-45" d="M 628 4666 
L 3578 4666 
L 3578 4134 
L 1259 4134 
L 1259 2753 
L 3481 2753 
L 3481 2222 
L 1259 2222 
L 1259 531 
L 3634 531 
L 3634 0 
L 628 0 
L 628 4666 
z
" transform="scale(0.015625)"/>
      <path id="DejaVuSans-6e" d="M 3513 2113 
L 3513 0 
L 2938 0 
L 2938 2094 
Q 2938 2591 2744 2837 
Q 2550 3084 2163 3084 
Q 1697 3084 1428 2787 
Q 1159 2491 1159 1978 
L 1159 0 
L 581 0 
L 581 3500 
L 1159 3500 
L 1159 2956 
Q 1366 3272 1645 3428 
Q 1925 3584 2291 3584 
Q 2894 3584 3203 3211 
Q 3513 2838 3513 2113 
z
" transform="scale(0.015625)"/>
      <path id="DejaVuSans-65" d="M 3597 1894 
L 3597 1613 
L 953 1613 
Q 991 1019 1311 708 
Q 1631 397 2203 397 
Q 2534 397 2845 478 
Q 3156 559 3463 722 
L 3463 178 
Q 3153 47 2828 -22 
Q 2503 -91 2169 -91 
Q 1331 -91 842 396 
Q 353 884 353 1716 
Q 353 2575 817 3079 
Q 1281 3584 2069 3584 
Q 2775 3584 3186 3129 
Q 3597 2675 3597 1894 
z
M 3022 2063 
Q 3016 2534 2758 2815 
Q 2500 3097 2075 3097 
Q 1594 3097 1305 2825 
Q 1016 2553 972 2059 
L 3022 2063 
z
" transform="scale(0.015625)"/>
      <path id="DejaVuSans-72" d="M 2631 2963 
Q 2534 3019 2420 3045 
Q 2306 3072 2169 3072 
Q 1681 3072 1420 2755 
Q 1159 2438 1159 1844 
L 1159 0 
L 581 0 
L 581 3500 
L 1159 3500 
L 1159 2956 
Q 1341 3275 1631 3429 
Q 1922 3584 2338 3584 
Q 2397 3584 2469 3576 
Q 2541 3569 2628 3553 
L 2631 2963 
z
" transform="scale(0.015625)"/>
      <path id="DejaVuSans-67" d="M 2906 1791 
Q 2906 2416 2648 2759 
Q 2391 3103 1925 3103 
Q 1463 3103 1205 2759 
Q 947 2416 947 1791 
Q 947 1169 1205 825 
Q 1463 481 1925 481 
Q 2391 481 2648 825 
Q 2906 1169 2906 1791 
z
M 3481 434 
Q 3481 -459 3084 -895 
Q 2688 -1331 1869 -1331 
Q 1566 -1331 1297 -1286 
Q 1028 -1241 775 -1147 
L 775 -588 
Q 1028 -725 1275 -790 
Q 1522 -856 1778 -856 
Q 2344 -856 2625 -561 
Q 2906 -266 2906 331 
L 2906 616 
Q 2728 306 2450 153 
Q 2172 0 1784 0 
Q 1141 0 747 490 
Q 353 981 353 1791 
Q 353 2603 747 3093 
Q 1141 3584 1784 3584 
Q 2172 3584 2450 3431 
Q 2728 3278 2906 2969 
L 2906 3500 
L 3481 3500 
L 3481 434 
z
" transform="scale(0.015625)"/>
      <path id="DejaVuSans-79" d="M 2059 -325 
Q 1816 -950 1584 -1140 
Q 1353 -1331 966 -1331 
L 506 -1331 
L 506 -850 
L 844 -850 
Q 1081 -850 1212 -737 
Q 1344 -625 1503 -206 
L 1606 56 
L 191 3500 
L 800 3500 
L 1894 763 
L 2988 3500 
L 3597 3500 
L 2059 -325 
z
" transform="scale(0.015625)"/>
      <path id="DejaVuSans-20" transform="scale(0.015625)"/>
      <path id="DejaVuSans-76" d="M 191 3500 
L 800 3500 
L 1894 563 
L 2988 3500 
L 3597 3500 
L 2284 0 
L 1503 0 
L 191 3500 
z
" transform="scale(0.015625)"/>
      <path id="DejaVuSans-6f" d="M 1959 3097 
Q 1497 3097 1228 2736 
Q 959 2375 959 1747 
Q 959 1119 1226 758 
Q 1494 397 1959 397 
Q 2419 397 2687 759 
Q 2956 1122 2956 1747 
Q 2956 2369 2687 2733 
Q 2419 3097 1959 3097 
z
M 1959 3584 
Q 2709 3584 3137 3096 
Q 3566 2609 3566 1747 
Q 3566 888 3137 398 
Q 2709 -91 1959 -91 
Q 1206 -91 779 398 
Q 353 888 353 1747 
Q 353 2609 779 3096 
Q 1206 3584 1959 3584 
z
" transform="scale(0.015625)"/>
      <path id="DejaVuSans-6c" d="M 603 4863 
L 1178 4863 
L 1178 0 
L 603 0 
L 603 4863 
z
" transform="scale(0.015625)"/>
      <path id="DejaVuSans-75" d="M 544 1381 
L 544 3500 
L 1119 3500 
L 1119 1403 
Q 1119 906 1312 657 
Q 1506 409 1894 409 
Q 2359 409 2629 706 
Q 2900 1003 2900 1516 
L 2900 3500 
L 3475 3500 
L 3475 0 
L 2900 0 
L 2900 538 
Q 2691 219 2414 64 
Q 2138 -91 1772 -91 
Q 1169 -91 856 284 
Q 544 659 544 1381 
z
M 1991 3584 
L 1991 3584 
z
" transform="scale(0.015625)"/>
      <path id="DejaVuSans-74" d="M 1172 4494 
L 1172 3500 
L 2356 3500 
L 2356 3053 
L 1172 3053 
L 1172 1153 
Q 1172 725 1289 603 
Q 1406 481 1766 481 
L 2356 481 
L 2356 0 
L 1766 0 
Q 1100 0 847 248 
Q 594 497 594 1153 
L 594 3053 
L 172 3053 
L 172 3500 
L 594 3500 
L 594 4494 
L 1172 4494 
z
" transform="scale(0.015625)"/>
      <path id="DejaVuSans-69" d="M 603 3500 
L 1178 3500 
L 1178 0 
L 603 0 
L 603 3500 
z
M 603 4863 
L 1178 4863 
L 1178 4134 
L 603 4134 
L 603 4863 
z
" transform="scale(0.015625)"/>
      <path id="DejaVuSans-66" d="M 2375 4863 
L 2375 4384 
L 1825 4384 
Q 1516 4384 1395 4259 
Q 1275 4134 1275 3809 
L 1275 3500 
L 2222 3500 
L 2222 3053 
L 1275 3053 
L 1275 0 
L 697 0 
L 697 3053 
L 147 3053 
L 147 3500 
L 697 3500 
L 697 3744 
Q 697 4328 969 4595 
Q 1241 4863 1831 4863 
L 2375 4863 
z
" transform="scale(0.015625)"/>
      <path id="DejaVuSans-68" d="M 3513 2113 
L 3513 0 
L 2938 0 
L 2938 2094 
Q 2938 2591 2744 2837 
Q 2550 3084 2163 3084 
Q 1697 3084 1428 2787 
Q 1159 2491 1159 1978 
L 1159 0 
L 581 0 
L 581 4863 
L 1159 4863 
L 1159 2956 
Q 1366 3272 1645 3428 
Q 1925 3584 2291 3584 
Q 2894 3584 3203 3211 
Q 3513 2838 3513 2113 
z
" transform="scale(0.015625)"/>
      <path id="DejaVuSans-73" d="M 2834 3397 
L 2834 2853 
Q 2591 2978 2328 3040 
Q 2066 3103 1784 3103 
Q 1356 3103 1142 2972 
Q 928 2841 928 2578 
Q 928 2378 1081 2264 
Q 1234 2150 1697 2047 
L 1894 2003 
Q 2506 1872 2764 1633 
Q 3022 1394 3022 966 
Q 3022 478 2636 193 
Q 2250 -91 1575 -91 
Q 1294 -91 989 -36 
Q 684 19 347 128 
L 347 722 
Q 666 556 975 473 
Q 1284 391 1588 391 
Q 1994 391 2212 530 
Q 2431 669 2431 922 
Q 2431 1156 2273 1281 
Q 2116 1406 1581 1522 
L 1381 1569 
Q 847 1681 609 1914 
Q 372 2147 372 2553 
Q 372 3047 722 3315 
Q 1072 3584 1716 3584 
Q 2034 3584 2315 3537 
Q 2597 3491 2834 3397 
z
" transform="scale(0.015625)"/>
      <path id="DejaVuSans-61" d="M 2194 1759 
Q 1497 1759 1228 1600 
Q 959 1441 959 1056 
Q 959 750 1161 570 
Q 1363 391 1709 391 
Q 2188 391 2477 730 
Q 2766 1069 2766 1631 
L 2766 1759 
L 2194 1759 
z
M 3341 1997 
L 3341 0 
L 2766 0 
L 2766 531 
Q 2569 213 2275 61 
Q 1981 -91 1556 -91 
Q 1019 -91 701 211 
Q 384 513 384 1019 
Q 384 1609 779 1909 
Q 1175 2209 1959 2209 
L 2766 2209 
L 2766 2266 
Q 2766 2663 2505 2880 
Q 2244 3097 1772 3097 
Q 1472 3097 1187 3025 
Q 903 2953 641 2809 
L 641 3341 
Q 956 3463 1253 3523 
Q 1550 3584 1831 3584 
Q 2591 3584 2966 3190 
Q 3341 2797 3341 1997 
z
" transform="scale(0.015625)"/>
     </defs>
     <use xlink:href="#DejaVuSans-45"/>
     <use xlink:href="#DejaVuSans-6e" x="63.183594"/>
     <use xlink:href="#DejaVuSans-65" x="126.5625"/>
     <use xlink:href="#DejaVuSans-72" x="188.085938"/>
     <use xlink:href="#DejaVuSans-67" x="227.449219"/>
     <use xlink:href="#DejaVuSans-79" x="290.925781"/>
     <use xlink:href="#DejaVuSans-20" x="350.105469"/>
     <use xlink:href="#DejaVuSans-65" x="381.892578"/>
     <use xlink:href="#DejaVuSans-76" x="443.416016"/>
     <use xlink:href="#DejaVuSans-6f" x="502.595703"/>
     <use xlink:href="#DejaVuSans-6c" x="563.777344"/>
     <use xlink:href="#DejaVuSans-75" x="591.560547"/>
     <use xlink:href="#DejaVuSans-74" x="654.939453"/>
     <use xlink:href="#DejaVuSans-69" x="694.148438"/>
     <use xlink:href="#DejaVuSans-6f" x="721.931641"/>
     <use xlink:href="#DejaVuSans-6e" x="783.113281"/>
     <use xlink:href="#DejaVuSans-20" x="846.492188"/>
     <use xlink:href="#DejaVuSans-6f" x="878.279297"/>
     <use xlink:href="#DejaVuSans-66" x="939.460938"/>
     <use xlink:href="#DejaVuSans-20" x="974.666016"/>
     <use xlink:href="#DejaVuSans-74" x="1006.453125"/>
     <use xlink:href="#DejaVuSans-68" x="1045.662109"/>
     <use xlink:href="#DejaVuSans-65" x="1109.041016"/>
     <use xlink:href="#DejaVuSans-20" x="1170.564453"/>
     <use xlink:href="#DejaVuSans-73" x="1202.351562"/>
     <use xlink:href="#DejaVuSans-74" x="1254.451172"/>
     <use xlink:href="#DejaVuSans-61" x="1293.660156"/>
     <use xlink:href="#DejaVuSans-74" x="1354.939453"/>
     <use xlink:href="#DejaVuSans-65" x="1394.148438"/>
     <use xlink:href="#DejaVuSans-73" x="1455.671875"/>
    </g>
   </g>
  </g>
 </g>
 <defs>
  <clipPath id="pd4fedd591a">
   <rect x="42.01" y="26.88" width="407.99" height="290.84"/>
  </clipPath>
 </defs>
</svg>
