<?xml version="1.0" encoding="utf-8" standalone="no"?>
<!DOCTYPE svg PUBLIC "-//W3C//DTD SVG 1.1//EN"
  "http://www.w3.org/Graphics/SVG/1.1/DTD/svg11.dtd">
<svg xmlns:xlink="http://www.w3.org/1999/xlink" width="460.8pt" height="345.6pt" viewBox="0 0 460.8 345.6" xmlns="http://www.w3.org/2000/svg" version="1.1">
 <metadata>
  <rdf:RDF xmlns:dc="http://purl.org/dc/elements/1.1/" xmlns:cc="http://creativecommons.org/ns#" xmlns:rdf="http://www.w3.org/1999/02/22-rdf-syntax-ns#">
   <cc:Work>
    <dc:type rdf:resource="http://purl.org/dc/dcmitype/StillImage"/>
    <dc:date>2024-03-21T20:32:17.154204</dc:date>
    <dc:format>image/svg+xml</dc:format>
    <dc:creator>
     <cc:Agent>
      <dc:title>Matplotlib v3.7.1, https://matplotlib.org/</dc:title>
     </cc:Agent>
    </dc:creator>
   </cc:Work>
  </rdf:RDF>
 </metadata>
 <defs>
  <style type="text/css">*{stroke-linejoin: round; stroke-linecap: butt}</style>
 </defs>
 <g id="figure_1">
  <g id="patch_1">
   <path d="M 0 345.6 
L 460.8 345.6 
L 460.8 0 
L 0 0 
z
" style="fill: #ffffff"/>
  </g>
  <g id="patch_2">
   <path d="M 95.96336 295.75328 
L 364.83664 295.75328 
L 364.83664 26.88 
L 95.96336 26.88 
z
" style="fill: #ffffff"/>
  </g>
  <g id="pane3d_1">
   <g id="patch_3">
    <path d="M 116.265147 229.457746 
L 205.055885 155.031589 
L 203.821609 47.695765 
L 110.781776 115.591997 
" style="fill: #f2f2f2; opacity: 0.5; stroke: #f2f2f2; stroke-linejoin: miter"/>
   </g>
  </g>
  <g id="pane3d_2">
   <g id="patch_4">
    <path d="M 205.055885 155.031589 
L 347.533339 196.444159 
L 352.617857 85.411277 
L 203.821609 47.695765 
" style="fill: #e6e6e6; opacity: 0.5; stroke: #e6e6e6; stroke-linejoin: miter"/>
   </g>
  </g>
  <g id="pane3d_3">
   <g id="patch_5">
    <path d="M 116.265147 229.457746 
L 267.298207 278.785143 
L 347.533339 196.444159 
L 205.055885 155.031589 
" style="fill: #ececec; opacity: 0.5; stroke: #ececec; stroke-linejoin: miter"/>
   </g>
  </g>
  <g id="axis3d_1">
   <g id="line2d_1">
    <path d="M 116.265147 229.457746 
L 267.298207 278.785143 
" style="fill: none; stroke: #000000; stroke-width: 0.8; stroke-linecap: square"/>
   </g>
   <g id="Line3DCollection_1">
    <path d="M 122.41902 231.467601 
L 210.885794 156.726113 
L 209.897755 49.235891 
" style="fill: none; stroke: #b0b0b0; stroke-width: 0.8"/>
    <path d="M 155.703789 242.338406 
L 242.381932 165.880797 
L 242.742342 57.561036 
" style="fill: none; stroke: #b0b0b0; stroke-width: 0.8"/>
    <path d="M 189.790833 253.471235 
L 274.573704 175.237674 
L 276.344022 66.078083 
" style="fill: none; stroke: #b0b0b0; stroke-width: 0.8"/>
    <path d="M 224.70951 264.875675 
L 307.484413 184.803518 
L 310.729278 74.793743 
" style="fill: none; stroke: #b0b0b0; stroke-width: 0.8"/>
    <path d="M 260.490632 276.561789 
L 341.138415 194.585408 
L 345.925843 83.715046 
" style="fill: none; stroke: #b0b0b0; stroke-width: 0.8"/>
   </g>
   <g id="xtick_1">
    <g id="line2d_2">
     <path d="M 123.189316 230.816813 
L 120.875124 232.771966 
" style="fill: none; stroke: #000000; stroke-width: 0.8; stroke-linecap: square"/>
    </g>
    <g id="text_1">
     <!-- −1.0 -->
     <g transform="translate(102.745934 254.755688) scale(0.1 -0.1)">
      <defs>
       <path id="DejaVuSans-2212" d="M 678 2272 
L 4684 2272 
L 4684 1741 
L 678 1741 
L 678 2272 
z
" transform="scale(0.015625)"/>
       <path id="DejaVuSans-31" d="M 794 531 
L 1825 531 
L 1825 4091 
L 703 3866 
L 703 4441 
L 1819 4666 
L 2450 4666 
L 2450 531 
L 3481 531 
L 3481 0 
L 794 0 
L 794 531 
z
" transform="scale(0.015625)"/>
       <path id="DejaVuSans-2e" d="M 684 794 
L 1344 794 
L 1344 0 
L 684 0 
L 684 794 
z
" transform="scale(0.015625)"/>
       <path id="DejaVuSans-30" d="M 2034 4250 
Q 1547 4250 1301 3770 
Q 1056 3291 1056 2328 
Q 1056 1369 1301 889 
Q 1547 409 2034 409 
Q 2525 409 2770 889 
Q 3016 1369 3016 2328 
Q 3016 3291 2770 3770 
Q 2525 4250 2034 4250 
z
M 2034 4750 
Q 2819 4750 3233 4129 
Q 3647 3509 3647 2328 
Q 3647 1150 3233 529 
Q 2819 -91 2034 -91 
Q 1250 -91 836 529 
Q 422 1150 422 2328 
Q 422 3509 836 4129 
Q 1250 4750 2034 4750 
z
" transform="scale(0.015625)"/>
      </defs>
      <use xlink:href="#DejaVuSans-2212"/>
      <use xlink:href="#DejaVuSans-31" x="83.789062"/>
      <use xlink:href="#DejaVuSans-2e" x="147.412109"/>
      <use xlink:href="#DejaVuSans-30" x="179.199219"/>
     </g>
    </g>
   </g>
   <g id="xtick_2">
    <g id="line2d_3">
     <path d="M 156.459241 241.672032 
L 154.189608 243.674045 
" style="fill: none; stroke: #000000; stroke-width: 0.8; stroke-linecap: square"/>
    </g>
    <g id="text_2">
     <!-- −0.5 -->
     <g transform="translate(136.064465 265.854451) scale(0.1 -0.1)">
      <defs>
       <path id="DejaVuSans-35" d="M 691 4666 
L 3169 4666 
L 3169 4134 
L 1269 4134 
L 1269 2991 
Q 1406 3038 1543 3061 
Q 1681 3084 1819 3084 
Q 2600 3084 3056 2656 
Q 3513 2228 3513 1497 
Q 3513 744 3044 326 
Q 2575 -91 1722 -91 
Q 1428 -91 1123 -41 
Q 819 9 494 109 
L 494 744 
Q 775 591 1075 516 
Q 1375 441 1709 441 
Q 2250 441 2565 725 
Q 2881 1009 2881 1497 
Q 2881 1984 2565 2268 
Q 2250 2553 1709 2553 
Q 1456 2553 1204 2497 
Q 953 2441 691 2322 
L 691 4666 
z
" transform="scale(0.015625)"/>
      </defs>
      <use xlink:href="#DejaVuSans-2212"/>
      <use xlink:href="#DejaVuSans-30" x="83.789062"/>
      <use xlink:href="#DejaVuSans-2e" x="147.412109"/>
      <use xlink:href="#DejaVuSans-35" x="179.199219"/>
     </g>
    </g>
   </g>
   <g id="xtick_3">
    <g id="line2d_4">
     <path d="M 190.530497 252.788708 
L 188.308257 254.839285 
" style="fill: none; stroke: #000000; stroke-width: 0.8; stroke-linecap: square"/>
    </g>
    <g id="text_3">
     <!-- 0.0 -->
     <g transform="translate(174.37895 277.221738) scale(0.1 -0.1)">
      <use xlink:href="#DejaVuSans-30"/>
      <use xlink:href="#DejaVuSans-2e" x="63.623047"/>
      <use xlink:href="#DejaVuSans-30" x="95.410156"/>
     </g>
    </g>
   </g>
   <g id="xtick_4">
    <g id="line2d_5">
     <path d="M 225.432387 264.176401 
L 223.260544 266.27733 
" style="fill: none; stroke: #000000; stroke-width: 0.8; stroke-linecap: square"/>
    </g>
    <g id="text_4">
     <!-- 0.5 -->
     <g transform="translate(209.339315 288.867414) scale(0.1 -0.1)">
      <use xlink:href="#DejaVuSans-30"/>
      <use xlink:href="#DejaVuSans-2e" x="63.623047"/>
      <use xlink:href="#DejaVuSans-35" x="95.410156"/>
     </g>
    </g>
   </g>
   <g id="xtick_5">
    <g id="line2d_6">
     <path d="M 261.195663 275.845144 
L 259.0774 277.998303 
" style="fill: none; stroke: #000000; stroke-width: 0.8; stroke-linecap: square"/>
    </g>
    <g id="text_5">
     <!-- 1.0 -->
     <g transform="translate(245.166485 300.801831) scale(0.1 -0.1)">
      <use xlink:href="#DejaVuSans-31"/>
      <use xlink:href="#DejaVuSans-2e" x="63.623047"/>
      <use xlink:href="#DejaVuSans-30" x="95.410156"/>
     </g>
    </g>
   </g>
  </g>
  <g id="axis3d_2">
   <g id="line2d_7">
    <path d="M 347.533339 196.444159 
L 267.298207 278.785143 
" style="fill: none; stroke: #000000; stroke-width: 0.8; stroke-linecap: square"/>
   </g>
   <g id="Line3DCollection_2">
    <path d="M 115.123185 112.423834 
L 120.393313 225.997435 
L 271.044331 274.940698 
" style="fill: none; stroke: #b0b0b0; stroke-width: 0.8"/>
    <path d="M 137.706556 95.943519 
L 141.891004 207.977644 
L 290.527633 254.946038 
" style="fill: none; stroke: #b0b0b0; stroke-width: 0.8"/>
    <path d="M 159.371328 80.133556 
L 162.551503 190.659604 
L 309.212941 235.770314 
" style="fill: none; stroke: #b0b0b0; stroke-width: 0.8"/>
    <path d="M 180.172431 64.953857 
L 182.422782 174.003105 
L 327.1483 217.364224 
" style="fill: none; stroke: #b0b0b0; stroke-width: 0.8"/>
    <path d="M 200.160503 50.367473 
L 201.549214 157.97095 
L 344.37797 199.682344 
" style="fill: none; stroke: #b0b0b0; stroke-width: 0.8"/>
   </g>
   <g id="xtick_6">
    <g id="line2d_8">
     <path d="M 269.774666 274.528211 
L 273.586952 275.76674 
" style="fill: none; stroke: #000000; stroke-width: 0.8; stroke-linecap: square"/>
    </g>
    <g id="text_6">
     <!-- −1.0 -->
     <g transform="translate(271.807427 295.989518) scale(0.1 -0.1)">
      <use xlink:href="#DejaVuSans-2212"/>
      <use xlink:href="#DejaVuSans-31" x="83.789062"/>
      <use xlink:href="#DejaVuSans-2e" x="147.412109"/>
      <use xlink:href="#DejaVuSans-30" x="179.199219"/>
     </g>
    </g>
   </g>
   <g id="xtick_7">
    <g id="line2d_9">
     <path d="M 289.276273 254.550615 
L 293.033526 255.737887 
" style="fill: none; stroke: #000000; stroke-width: 0.8; stroke-linecap: square"/>
    </g>
    <g id="text_7">
     <!-- −0.5 -->
     <g transform="translate(291.032103 275.701863) scale(0.1 -0.1)">
      <use xlink:href="#DejaVuSans-2212"/>
      <use xlink:href="#DejaVuSans-30" x="83.789062"/>
      <use xlink:href="#DejaVuSans-2e" x="147.412109"/>
      <use xlink:href="#DejaVuSans-35" x="179.199219"/>
     </g>
    </g>
   </g>
   <g id="xtick_8">
    <g id="line2d_10">
     <path d="M 307.979469 235.390918 
L 311.682952 236.53005 
" style="fill: none; stroke: #000000; stroke-width: 0.8; stroke-linecap: square"/>
    </g>
    <g id="text_8">
     <!-- 0.0 -->
     <g transform="translate(313.658775 256.245618) scale(0.1 -0.1)">
      <use xlink:href="#DejaVuSans-30"/>
      <use xlink:href="#DejaVuSans-2e" x="63.623047"/>
      <use xlink:href="#DejaVuSans-30" x="95.410156"/>
     </g>
    </g>
   </g>
   <g id="xtick_9">
    <g id="line2d_11">
     <path d="M 325.9323 216.999899 
L 329.583261 218.093761 
" style="fill: none; stroke: #000000; stroke-width: 0.8; stroke-linecap: square"/>
    </g>
    <g id="text_9">
     <!-- 0.5 -->
     <g transform="translate(331.355213 237.570702) scale(0.1 -0.1)">
      <use xlink:href="#DejaVuSans-30"/>
      <use xlink:href="#DejaVuSans-2e" x="63.623047"/>
      <use xlink:href="#DejaVuSans-35" x="95.410156"/>
     </g>
    </g>
   </g>
   <g id="xtick_10">
    <g id="line2d_12">
     <path d="M 343.179037 199.33221 
L 346.778699 200.383448 
" style="fill: none; stroke: #000000; stroke-width: 0.8; stroke-linecap: square"/>
    </g>
    <g id="text_10">
     <!-- 1.0 -->
     <g transform="translate(348.354982 219.630974) scale(0.1 -0.1)">
      <use xlink:href="#DejaVuSans-31"/>
      <use xlink:href="#DejaVuSans-2e" x="63.623047"/>
      <use xlink:href="#DejaVuSans-30" x="95.410156"/>
     </g>
    </g>
   </g>
  </g>
  <g id="axis3d_3">
   <g id="line2d_13">
    <path d="M 347.533339 196.444159 
L 352.617857 85.411277 
" style="fill: none; stroke: #000000; stroke-width: 0.8; stroke-linecap: square"/>
   </g>
   <g id="Line3DCollection_3">
    <path d="M 347.742287 191.881254 
L 205.005059 150.611676 
L 116.040171 224.785983 
" style="fill: none; stroke: #b0b0b0; stroke-width: 0.8"/>
    <path d="M 348.869802 167.259207 
L 204.730951 126.774481 
L 114.825636 199.565361 
" style="fill: none; stroke: #b0b0b0; stroke-width: 0.8"/>
    <path d="M 350.019902 142.143976 
L 204.451616 102.482814 
L 113.585837 173.820134 
" style="fill: none; stroke: #b0b0b0; stroke-width: 0.8"/>
    <path d="M 351.193271 116.520591 
L 204.166904 77.723555 
L 112.319978 147.533762 
" style="fill: none; stroke: #b0b0b0; stroke-width: 0.8"/>
    <path d="M 352.390623 90.373473 
L 203.876659 52.483071 
L 111.02723 120.689001 
" style="fill: none; stroke: #b0b0b0; stroke-width: 0.8"/>
   </g>
   <g id="xtick_11">
    <g id="line2d_14">
     <path d="M 346.544226 191.534859 
L 350.141265 192.57487 
" style="fill: none; stroke: #000000; stroke-width: 0.8; stroke-linecap: square"/>
    </g>
    <g id="text_11">
     <!-- −1.0 -->
     <g transform="translate(353.882957 196.883398) scale(0.1 -0.1)">
      <use xlink:href="#DejaVuSans-2212"/>
      <use xlink:href="#DejaVuSans-31" x="83.789062"/>
      <use xlink:href="#DejaVuSans-2e" x="147.412109"/>
      <use xlink:href="#DejaVuSans-30" x="179.199219"/>
     </g>
    </g>
   </g>
   <g id="xtick_12">
    <g id="line2d_15">
     <path d="M 347.659414 166.919242 
L 351.293492 167.939957 
" style="fill: none; stroke: #000000; stroke-width: 0.8; stroke-linecap: square"/>
    </g>
    <g id="text_12">
     <!-- −0.5 -->
     <g transform="translate(355.187824 172.309608) scale(0.1 -0.1)">
      <use xlink:href="#DejaVuSans-2212"/>
      <use xlink:href="#DejaVuSans-30" x="83.789062"/>
      <use xlink:href="#DejaVuSans-2e" x="147.412109"/>
      <use xlink:href="#DejaVuSans-35" x="179.199219"/>
     </g>
    </g>
   </g>
   <g id="xtick_13">
    <g id="line2d_16">
     <path d="M 348.796931 141.810768 
L 352.468816 142.8112 
" style="fill: none; stroke: #000000; stroke-width: 0.8; stroke-linecap: square"/>
    </g>
    <g id="text_13">
     <!-- 0.0 -->
     <g transform="translate(360.708593 147.245093) scale(0.1 -0.1)">
      <use xlink:href="#DejaVuSans-30"/>
      <use xlink:href="#DejaVuSans-2e" x="63.623047"/>
      <use xlink:href="#DejaVuSans-30" x="95.410156"/>
     </g>
    </g>
   </g>
   <g id="xtick_14">
    <g id="line2d_17">
     <path d="M 349.957454 116.194486 
L 353.66794 117.173602 
" style="fill: none; stroke: #000000; stroke-width: 0.8; stroke-linecap: square"/>
    </g>
    <g id="text_14">
     <!-- 0.5 -->
     <g transform="translate(362.066363 121.675004) scale(0.1 -0.1)">
      <use xlink:href="#DejaVuSans-30"/>
      <use xlink:href="#DejaVuSans-2e" x="63.623047"/>
      <use xlink:href="#DejaVuSans-35" x="95.410156"/>
     </g>
    </g>
   </g>
   <g id="xtick_15">
    <g id="line2d_18">
     <path d="M 351.141687 90.054832 
L 354.891594 91.011546 
" style="fill: none; stroke: #000000; stroke-width: 0.8; stroke-linecap: square"/>
    </g>
    <g id="text_15">
     <!-- 1.0 -->
     <g transform="translate(363.4518 95.583888) scale(0.1 -0.1)">
      <use xlink:href="#DejaVuSans-31"/>
      <use xlink:href="#DejaVuSans-2e" x="63.623047"/>
      <use xlink:href="#DejaVuSans-30" x="95.410156"/>
     </g>
    </g>
   </g>
  </g>
  <g id="axes_1">
   <g id="Path3DCollection_1">
    <defs>
     <path id="C0_0_6cbc3b038e" d="M 0 -2.236068 
L -0.502029 -0.690983 
L -2.126627 -0.690983 
L -0.812299 0.263932 
L -1.314328 1.809017 
L -0 0.854102 
L 1.314328 1.809017 
L 0.812299 0.263932 
L 2.126627 -0.690983 
L 0.502029 -0.690983 
z
"/>
    </defs>
    <g clip-path="url(#p484495f799)">
     <use xlink:href="#C0_0_6cbc3b038e" x="272.03" y="124.777216" style="fill: #008000; fill-opacity: 0.3; stroke: #008000; stroke-opacity: 0.3"/>
    </g>
    <g clip-path="url(#p484495f799)">
     <use xlink:href="#C0_0_6cbc3b038e" x="167.112235" y="138.364734" style="fill: #008000; fill-opacity: 0.438623; stroke: #008000; stroke-opacity: 0.438623"/>
    </g>
    <g clip-path="url(#p484495f799)">
     <use xlink:href="#C0_0_6cbc3b038e" x="234.033423" y="208.029399" style="fill: #008000; fill-opacity: 0.4645; stroke: #008000; stroke-opacity: 0.4645"/>
    </g>
    <g clip-path="url(#p484495f799)">
     <use xlink:href="#C0_0_6cbc3b038e" x="234.033423" y="157.683217" style="fill: #008000; fill-opacity: 0.635714; stroke: #008000; stroke-opacity: 0.635714"/>
    </g>
    <g clip-path="url(#p484495f799)">
     <use xlink:href="#C0_0_6cbc3b038e" x="234.033423" y="105.239278" style="fill: #008000; fill-opacity: 0.814062; stroke: #008000; stroke-opacity: 0.814062"/>
    </g>
    <g clip-path="url(#p484495f799)">
     <use xlink:href="#C0_0_6cbc3b038e" x="304.184768" y="177.934166" style="fill: #008000; fill-opacity: 0.842319; stroke: #008000; stroke-opacity: 0.842319"/>
    </g>
    <g clip-path="url(#p484495f799)">
     <use xlink:href="#C0_0_6cbc3b038e" x="192.803094" y="193.389729" style="fill: #008000; stroke: #008000"/>
    </g>
   </g>
   <g id="text_16">
    <!-- Time evolution in the state space of a 3D Hopfield network -->
    <g transform="translate(53.454375 20.88) scale(0.12 -0.12)">
     <defs>
      <path id="DejaVuSans-54" d="M -19 4666 
L 3928 4666 
L 3928 4134 
L 2272 4134 
L 2272 0 
L 1638 0 
L 1638 4134 
L -19 4134 
L -19 4666 
z
" transform="scale(0.015625)"/>
      <path id="DejaVuSans-69" d="M 603 3500 
L 1178 3500 
L 1178 0 
L 603 0 
L 603 3500 
z
M 603 4863 
L 1178 4863 
L 1178 4134 
L 603 4134 
L 603 4863 
z
" transform="scale(0.015625)"/>
      <path id="DejaVuSans-6d" d="M 3328 2828 
Q 3544 3216 3844 3400 
Q 4144 3584 4550 3584 
Q 5097 3584 5394 3201 
Q 5691 2819 5691 2113 
L 5691 0 
L 5113 0 
L 5113 2094 
Q 5113 2597 4934 2840 
Q 4756 3084 4391 3084 
Q 3944 3084 3684 2787 
Q 3425 2491 3425 1978 
L 3425 0 
L 2847 0 
L 2847 2094 
Q 2847 2600 2669 2842 
Q 2491 3084 2119 3084 
Q 1678 3084 1418 2786 
Q 1159 2488 1159 1978 
L 1159 0 
L 581 0 
L 581 3500 
L 1159 3500 
L 1159 2956 
Q 1356 3278 1631 3431 
Q 1906 3584 2284 3584 
Q 2666 3584 2933 3390 
Q 3200 3197 3328 2828 
z
" transform="scale(0.015625)"/>
      <path id="DejaVuSans-65" d="M 3597 1894 
L 3597 1613 
L 953 1613 
Q 991 1019 1311 708 
Q 1631 397 2203 397 
Q 2534 397 2845 478 
Q 3156 559 3463 722 
L 3463 178 
Q 3153 47 2828 -22 
Q 2503 -91 2169 -91 
Q 1331 -91 842 396 
Q 353 884 353 1716 
Q 353 2575 817 3079 
Q 1281 3584 2069 3584 
Q 2775 3584 3186 3129 
Q 3597 2675 3597 1894 
z
M 3022 2063 
Q 3016 2534 2758 2815 
Q 2500 3097 2075 3097 
Q 1594 3097 1305 2825 
Q 1016 2553 972 2059 
L 3022 2063 
z
" transform="scale(0.015625)"/>
      <path id="DejaVuSans-20" transform="scale(0.015625)"/>
      <path id="DejaVuSans-76" d="M 191 3500 
L 800 3500 
L 1894 563 
L 2988 3500 
L 3597 3500 
L 2284 0 
L 1503 0 
L 191 3500 
z
" transform="scale(0.015625)"/>
      <path id="DejaVuSans-6f" d="M 1959 3097 
Q 1497 3097 1228 2736 
Q 959 2375 959 1747 
Q 959 1119 1226 758 
Q 1494 397 1959 397 
Q 2419 397 2687 759 
Q 2956 1122 2956 1747 
Q 2956 2369 2687 2733 
Q 2419 3097 1959 3097 
z
M 1959 3584 
Q 2709 3584 3137 3096 
Q 3566 2609 3566 1747 
Q 3566 888 3137 398 
Q 2709 -91 1959 -91 
Q 1206 -91 779 398 
Q 353 888 353 1747 
Q 353 2609 779 3096 
Q 1206 3584 1959 3584 
z
" transform="scale(0.015625)"/>
      <path id="DejaVuSans-6c" d="M 603 4863 
L 1178 4863 
L 1178 0 
L 603 0 
L 603 4863 
z
" transform="scale(0.015625)"/>
      <path id="DejaVuSans-75" d="M 544 1381 
L 544 3500 
L 1119 3500 
L 1119 1403 
Q 1119 906 1312 657 
Q 1506 409 1894 409 
Q 2359 409 2629 706 
Q 2900 1003 2900 1516 
L 2900 3500 
L 3475 3500 
L 3475 0 
L 2900 0 
L 2900 538 
Q 2691 219 2414 64 
Q 2138 -91 1772 -91 
Q 1169 -91 856 284 
Q 544 659 544 1381 
z
M 1991 3584 
L 1991 3584 
z
" transform="scale(0.015625)"/>
      <path id="DejaVuSans-74" d="M 1172 4494 
L 1172 3500 
L 2356 3500 
L 2356 3053 
L 1172 3053 
L 1172 1153 
Q 1172 725 1289 603 
Q 1406 481 1766 481 
L 2356 481 
L 2356 0 
L 1766 0 
Q 1100 0 847 248 
Q 594 497 594 1153 
L 594 3053 
L 172 3053 
L 172 3500 
L 594 3500 
L 594 4494 
L 1172 4494 
z
" transform="scale(0.015625)"/>
      <path id="DejaVuSans-6e" d="M 3513 2113 
L 3513 0 
L 2938 0 
L 2938 2094 
Q 2938 2591 2744 2837 
Q 2550 3084 2163 3084 
Q 1697 3084 1428 2787 
Q 1159 2491 1159 1978 
L 1159 0 
L 581 0 
L 581 3500 
L 1159 3500 
L 1159 2956 
Q 1366 3272 1645 3428 
Q 1925 3584 2291 3584 
Q 2894 3584 3203 3211 
Q 3513 2838 3513 2113 
z
" transform="scale(0.015625)"/>
      <path id="DejaVuSans-68" d="M 3513 2113 
L 3513 0 
L 2938 0 
L 2938 2094 
Q 2938 2591 2744 2837 
Q 2550 3084 2163 3084 
Q 1697 3084 1428 2787 
Q 1159 2491 1159 1978 
L 1159 0 
L 581 0 
L 581 4863 
L 1159 4863 
L 1159 2956 
Q 1366 3272 1645 3428 
Q 1925 3584 2291 3584 
Q 2894 3584 3203 3211 
Q 3513 2838 3513 2113 
z
" transform="scale(0.015625)"/>
      <path id="DejaVuSans-73" d="M 2834 3397 
L 2834 2853 
Q 2591 2978 2328 3040 
Q 2066 3103 1784 3103 
Q 1356 3103 1142 2972 
Q 928 2841 928 2578 
Q 928 2378 1081 2264 
Q 1234 2150 1697 2047 
L 1894 2003 
Q 2506 1872 2764 1633 
Q 3022 1394 3022 966 
Q 3022 478 2636 193 
Q 2250 -91 1575 -91 
Q 1294 -91 989 -36 
Q 684 19 347 128 
L 347 722 
Q 666 556 975 473 
Q 1284 391 1588 391 
Q 1994 391 2212 530 
Q 2431 669 2431 922 
Q 2431 1156 2273 1281 
Q 2116 1406 1581 1522 
L 1381 1569 
Q 847 1681 609 1914 
Q 372 2147 372 2553 
Q 372 3047 722 3315 
Q 1072 3584 1716 3584 
Q 2034 3584 2315 3537 
Q 2597 3491 2834 3397 
z
" transform="scale(0.015625)"/>
      <path id="DejaVuSans-61" d="M 2194 1759 
Q 1497 1759 1228 1600 
Q 959 1441 959 1056 
Q 959 750 1161 570 
Q 1363 391 1709 391 
Q 2188 391 2477 730 
Q 2766 1069 2766 1631 
L 2766 1759 
L 2194 1759 
z
M 3341 1997 
L 3341 0 
L 2766 0 
L 2766 531 
Q 2569 213 2275 61 
Q 1981 -91 1556 -91 
Q 1019 -91 701 211 
Q 384 513 384 1019 
Q 384 1609 779 1909 
Q 1175 2209 1959 2209 
L 2766 2209 
L 2766 2266 
Q 2766 2663 2505 2880 
Q 2244 3097 1772 3097 
Q 1472 3097 1187 3025 
Q 903 2953 641 2809 
L 641 3341 
Q 956 3463 1253 3523 
Q 1550 3584 1831 3584 
Q 2591 3584 2966 3190 
Q 3341 2797 3341 1997 
z
" transform="scale(0.015625)"/>
      <path id="DejaVuSans-70" d="M 1159 525 
L 1159 -1331 
L 581 -1331 
L 581 3500 
L 1159 3500 
L 1159 2969 
Q 1341 3281 1617 3432 
Q 1894 3584 2278 3584 
Q 2916 3584 3314 3078 
Q 3713 2572 3713 1747 
Q 3713 922 3314 415 
Q 2916 -91 2278 -91 
Q 1894 -91 1617 61 
Q 1341 213 1159 525 
z
M 3116 1747 
Q 3116 2381 2855 2742 
Q 2594 3103 2138 3103 
Q 1681 3103 1420 2742 
Q 1159 2381 1159 1747 
Q 1159 1113 1420 752 
Q 1681 391 2138 391 
Q 2594 391 2855 752 
Q 3116 1113 3116 1747 
z
" transform="scale(0.015625)"/>
      <path id="DejaVuSans-63" d="M 3122 3366 
L 3122 2828 
Q 2878 2963 2633 3030 
Q 2388 3097 2138 3097 
Q 1578 3097 1268 2742 
Q 959 2388 959 1747 
Q 959 1106 1268 751 
Q 1578 397 2138 397 
Q 2388 397 2633 464 
Q 2878 531 3122 666 
L 3122 134 
Q 2881 22 2623 -34 
Q 2366 -91 2075 -91 
Q 1284 -91 818 406 
Q 353 903 353 1747 
Q 353 2603 823 3093 
Q 1294 3584 2113 3584 
Q 2378 3584 2631 3529 
Q 2884 3475 3122 3366 
z
" transform="scale(0.015625)"/>
      <path id="DejaVuSans-66" d="M 2375 4863 
L 2375 4384 
L 1825 4384 
Q 1516 4384 1395 4259 
Q 1275 4134 1275 3809 
L 1275 3500 
L 2222 3500 
L 2222 3053 
L 1275 3053 
L 1275 0 
L 697 0 
L 697 3053 
L 147 3053 
L 147 3500 
L 697 3500 
L 697 3744 
Q 697 4328 969 4595 
Q 1241 4863 1831 4863 
L 2375 4863 
z
" transform="scale(0.015625)"/>
      <path id="DejaVuSans-33" d="M 2597 2516 
Q 3050 2419 3304 2112 
Q 3559 1806 3559 1356 
Q 3559 666 3084 287 
Q 2609 -91 1734 -91 
Q 1441 -91 1130 -33 
Q 819 25 488 141 
L 488 750 
Q 750 597 1062 519 
Q 1375 441 1716 441 
Q 2309 441 2620 675 
Q 2931 909 2931 1356 
Q 2931 1769 2642 2001 
Q 2353 2234 1838 2234 
L 1294 2234 
L 1294 2753 
L 1863 2753 
Q 2328 2753 2575 2939 
Q 2822 3125 2822 3475 
Q 2822 3834 2567 4026 
Q 2313 4219 1838 4219 
Q 1578 4219 1281 4162 
Q 984 4106 628 3988 
L 628 4550 
Q 988 4650 1302 4700 
Q 1616 4750 1894 4750 
Q 2613 4750 3031 4423 
Q 3450 4097 3450 3541 
Q 3450 3153 3228 2886 
Q 3006 2619 2597 2516 
z
" transform="scale(0.015625)"/>
      <path id="DejaVuSans-44" d="M 1259 4147 
L 1259 519 
L 2022 519 
Q 2988 519 3436 956 
Q 3884 1394 3884 2338 
Q 3884 3275 3436 3711 
Q 2988 4147 2022 4147 
L 1259 4147 
z
M 628 4666 
L 1925 4666 
Q 3281 4666 3915 4102 
Q 4550 3538 4550 2338 
Q 4550 1131 3912 565 
Q 3275 0 1925 0 
L 628 0 
L 628 4666 
z
" transform="scale(0.015625)"/>
      <path id="DejaVuSans-48" d="M 628 4666 
L 1259 4666 
L 1259 2753 
L 3553 2753 
L 3553 4666 
L 4184 4666 
L 4184 0 
L 3553 0 
L 3553 2222 
L 1259 2222 
L 1259 0 
L 628 0 
L 628 4666 
z
" transform="scale(0.015625)"/>
      <path id="DejaVuSans-64" d="M 2906 2969 
L 2906 4863 
L 3481 4863 
L 3481 0 
L 2906 0 
L 2906 525 
Q 2725 213 2448 61 
Q 2172 -91 1784 -91 
Q 1150 -91 751 415 
Q 353 922 353 1747 
Q 353 2572 751 3078 
Q 1150 3584 1784 3584 
Q 2172 3584 2448 3432 
Q 2725 3281 2906 2969 
z
M 947 1747 
Q 947 1113 1208 752 
Q 1469 391 1925 391 
Q 2381 391 2643 752 
Q 2906 1113 2906 1747 
Q 2906 2381 2643 2742 
Q 2381 3103 1925 3103 
Q 1469 3103 1208 2742 
Q 947 2381 947 1747 
z
" transform="scale(0.015625)"/>
      <path id="DejaVuSans-77" d="M 269 3500 
L 844 3500 
L 1563 769 
L 2278 3500 
L 2956 3500 
L 3675 769 
L 4391 3500 
L 4966 3500 
L 4050 0 
L 3372 0 
L 2619 2869 
L 1863 0 
L 1184 0 
L 269 3500 
z
" transform="scale(0.015625)"/>
      <path id="DejaVuSans-72" d="M 2631 2963 
Q 2534 3019 2420 3045 
Q 2306 3072 2169 3072 
Q 1681 3072 1420 2755 
Q 1159 2438 1159 1844 
L 1159 0 
L 581 0 
L 581 3500 
L 1159 3500 
L 1159 2956 
Q 1341 3275 1631 3429 
Q 1922 3584 2338 3584 
Q 2397 3584 2469 3576 
Q 2541 3569 2628 3553 
L 2631 2963 
z
" transform="scale(0.015625)"/>
      <path id="DejaVuSans-6b" d="M 581 4863 
L 1159 4863 
L 1159 1991 
L 2875 3500 
L 3609 3500 
L 1753 1863 
L 3688 0 
L 2938 0 
L 1159 1709 
L 1159 0 
L 581 0 
L 581 4863 
z
" transform="scale(0.015625)"/>
     </defs>
     <use xlink:href="#DejaVuSans-54"/>
     <use xlink:href="#DejaVuSans-69" x="57.958984"/>
     <use xlink:href="#DejaVuSans-6d" x="85.742188"/>
     <use xlink:href="#DejaVuSans-65" x="183.154297"/>
     <use xlink:href="#DejaVuSans-20" x="244.677734"/>
     <use xlink:href="#DejaVuSans-65" x="276.464844"/>
     <use xlink:href="#DejaVuSans-76" x="337.988281"/>
     <use xlink:href="#DejaVuSans-6f" x="397.167969"/>
     <use xlink:href="#DejaVuSans-6c" x="458.349609"/>
     <use xlink:href="#DejaVuSans-75" x="486.132812"/>
     <use xlink:href="#DejaVuSans-74" x="549.511719"/>
     <use xlink:href="#DejaVuSans-69" x="588.720703"/>
     <use xlink:href="#DejaVuSans-6f" x="616.503906"/>
     <use xlink:href="#DejaVuSans-6e" x="677.685547"/>
     <use xlink:href="#DejaVuSans-20" x="741.064453"/>
     <use xlink:href="#DejaVuSans-69" x="772.851562"/>
     <use xlink:href="#DejaVuSans-6e" x="800.634766"/>
     <use xlink:href="#DejaVuSans-20" x="864.013672"/>
     <use xlink:href="#DejaVuSans-74" x="895.800781"/>
     <use xlink:href="#DejaVuSans-68" x="935.009766"/>
     <use xlink:href="#DejaVuSans-65" x="998.388672"/>
     <use xlink:href="#DejaVuSans-20" x="1059.912109"/>
     <use xlink:href="#DejaVuSans-73" x="1091.699219"/>
     <use xlink:href="#DejaVuSans-74" x="1143.798828"/>
     <use xlink:href="#DejaVuSans-61" x="1183.007812"/>
     <use xlink:href="#DejaVuSans-74" x="1244.287109"/>
     <use xlink:href="#DejaVuSans-65" x="1283.496094"/>
     <use xlink:href="#DejaVuSans-20" x="1345.019531"/>
     <use xlink:href="#DejaVuSans-73" x="1376.806641"/>
     <use xlink:href="#DejaVuSans-70" x="1428.90625"/>
     <use xlink:href="#DejaVuSans-61" x="1492.382812"/>
     <use xlink:href="#DejaVuSans-63" x="1553.662109"/>
     <use xlink:href="#DejaVuSans-65" x="1608.642578"/>
     <use xlink:href="#DejaVuSans-20" x="1670.166016"/>
     <use xlink:href="#DejaVuSans-6f" x="1701.953125"/>
     <use xlink:href="#DejaVuSans-66" x="1763.134766"/>
     <use xlink:href="#DejaVuSans-20" x="1798.339844"/>
     <use xlink:href="#DejaVuSans-61" x="1830.126953"/>
     <use xlink:href="#DejaVuSans-20" x="1891.40625"/>
     <use xlink:href="#DejaVuSans-33" x="1923.193359"/>
     <use xlink:href="#DejaVuSans-44" x="1986.816406"/>
     <use xlink:href="#DejaVuSans-20" x="2063.818359"/>
     <use xlink:href="#DejaVuSans-48" x="2095.605469"/>
     <use xlink:href="#DejaVuSans-6f" x="2170.800781"/>
     <use xlink:href="#DejaVuSans-70" x="2231.982422"/>
     <use xlink:href="#DejaVuSans-66" x="2295.458984"/>
     <use xlink:href="#DejaVuSans-69" x="2330.664062"/>
     <use xlink:href="#DejaVuSans-65" x="2358.447266"/>
     <use xlink:href="#DejaVuSans-6c" x="2419.970703"/>
     <use xlink:href="#DejaVuSans-64" x="2447.753906"/>
     <use xlink:href="#DejaVuSans-20" x="2511.230469"/>
     <use xlink:href="#DejaVuSans-6e" x="2543.017578"/>
     <use xlink:href="#DejaVuSans-65" x="2606.396484"/>
     <use xlink:href="#DejaVuSans-74" x="2667.919922"/>
     <use xlink:href="#DejaVuSans-77" x="2707.128906"/>
     <use xlink:href="#DejaVuSans-6f" x="2788.916016"/>
     <use xlink:href="#DejaVuSans-72" x="2850.097656"/>
     <use xlink:href="#DejaVuSans-6b" x="2891.210938"/>
    </g>
   </g>
   <g id="Path3DCollection_2">
    <path d="M 340.185217 93.861702 
L 344.657353 89.389566 
M 340.185217 89.389566 
L 344.657353 93.861702 
" clip-path="url(#p484495f799)" style="fill: #ff0000; fill-opacity: 0.3; stroke: #ff0000; stroke-opacity: 0.3; stroke-width: 1.5"/>
    <path d="M 230.017753 104.362113 
L 234.489889 99.889977 
M 230.017753 99.889977 
L 234.489889 104.362113 
" clip-path="url(#p484495f799)" style="fill: #ff0000; fill-opacity: 0.522708; stroke: #ff0000; stroke-opacity: 0.522708; stroke-width: 1.5"/>
    <path d="M 304.123071 181.150001 
L 308.595207 176.677866 
M 304.123071 176.677866 
L 308.595207 181.150001 
" clip-path="url(#p484495f799)" style="fill: #ff0000; fill-opacity: 0.579475; stroke: #ff0000; stroke-opacity: 0.579475; stroke-width: 1.5"/>
    <path d="M 242.753243 160.921819 
L 247.225379 156.449683 
M 242.753243 156.449683 
L 247.225379 160.921819 
" clip-path="url(#p484495f799)" style="fill: #ff0000; fill-opacity: 0.772671; stroke: #ff0000; stroke-opacity: 0.772671; stroke-width: 1.5"/>
    <path d="M 119.523551 121.577068 
L 123.995687 117.104932 
M 119.523551 117.104932 
L 123.995687 121.577068 
" clip-path="url(#p484495f799)" style="fill: #ff0000; fill-opacity: 0.887827; stroke: #ff0000; stroke-opacity: 0.887827; stroke-width: 1.5"/>
    <path d="M 186.375659 197.513261 
L 190.847795 193.041125 
M 186.375659 193.041125 
L 190.847795 197.513261 
" clip-path="url(#p484495f799)" style="fill: #ff0000; fill-opacity: 0.896634; stroke: #ff0000; stroke-opacity: 0.896634; stroke-width: 1.5"/>
    <path d="M 262.079725 270.163599 
L 266.551861 265.691463 
M 262.079725 265.691463 
L 266.551861 270.163599 
" clip-path="url(#p484495f799)" style="fill: #ff0000; stroke: #ff0000; stroke-width: 1.5"/>
   </g>
   <g id="Line3DCollection_4">
    <path d="M 304.184768 177.934166 
L 305.195654 178.389669 
L 305.73606 178.633176 
L 306.025317 178.763514 
L 306.180248 178.833326 
L 306.263262 178.870731 
L 306.307749 178.890778 
L 306.331594 178.901522 
L 306.344374 178.907281 
L 306.351224 178.910367 
L 306.354896 178.912022 
L 306.356865 178.912909 
L 306.35792 178.913384 
L 306.358485 178.913639 
L 306.358788 178.913776 
L 306.358951 178.913849 
L 306.359038 178.913888 
L 306.359085 178.913909 
L 306.35911 178.91392 
L 306.359123 178.913927 
L 306.35913 178.91393 
L 306.359134 178.913931 
L 306.359136 178.913932 
L 306.359137 178.913933 
L 306.359138 178.913933 
L 306.359138 178.913933 
L 306.359138 178.913933 
L 306.359139 178.913933 
L 306.359139 178.913933 
L 306.359139 178.913933 
L 306.359139 178.913933 
L 306.359139 178.913933 
L 306.359139 178.913933 
L 306.359139 178.913933 
L 306.359139 178.913933 
L 306.359139 178.913933 
L 306.359139 178.913933 
L 306.359139 178.913933 
L 306.359139 178.913933 
L 306.359139 178.913933 
L 306.359139 178.913933 
L 306.359139 178.913933 
L 306.359139 178.913933 
L 306.359139 178.913933 
L 306.359139 178.913933 
L 306.359139 178.913933 
L 306.359139 178.913933 
L 306.359139 178.913933 
L 306.359139 178.913933 
L 306.359139 178.913933 
L 306.359139 178.913933 
" clip-path="url(#p484495f799)" style="fill: none; stroke: #0000ff; stroke-width: 1.5"/>
    <path d="M 272.03 124.777216 
L 297.493411 119.349964 
L 310.909923 113.023072 
L 322.53168 105.747657 
L 335.057729 97.366374 
L 342.421285 91.625634 
L 342.421285 91.625634 
L 342.421285 91.625634 
L 342.421285 91.625634 
L 342.421285 91.625634 
L 342.421285 91.625634 
L 342.421285 91.625634 
L 342.421285 91.625634 
L 342.421285 91.625634 
L 342.421285 91.625634 
L 342.421285 91.625634 
L 342.421285 91.625634 
L 342.421285 91.625634 
L 342.421285 91.625634 
L 342.421285 91.625634 
L 342.421285 91.625634 
L 342.421285 91.625634 
L 342.421285 91.625634 
L 342.421285 91.625634 
L 342.421285 91.625634 
L 342.421285 91.625634 
L 342.421285 91.625634 
L 342.421285 91.625634 
L 342.421285 91.625634 
L 342.421285 91.625634 
L 342.421285 91.625634 
L 342.421285 91.625634 
L 342.421285 91.625634 
L 342.421285 91.625634 
L 342.421285 91.625634 
L 342.421285 91.625634 
L 342.421285 91.625634 
L 342.421285 91.625634 
L 342.421285 91.625634 
L 342.421285 91.625634 
L 342.421285 91.625634 
L 342.421285 91.625634 
L 342.421285 91.625634 
L 342.421285 91.625634 
L 342.421285 91.625634 
L 342.421285 91.625634 
L 342.421285 91.625634 
L 342.421285 91.625634 
L 342.421285 91.625634 
L 342.421285 91.625634 
L 342.421285 91.625634 
" clip-path="url(#p484495f799)" style="fill: none; stroke: #0000ff; stroke-width: 1.5"/>
    <path d="M 234.033423 105.239278 
L 233.205988 103.791765 
L 232.76371 103.018044 
L 232.526993 102.603932 
L 232.400209 102.382135 
L 232.332278 102.263297 
L 232.295873 102.19961 
L 232.276361 102.165477 
L 232.265903 102.147181 
L 232.260298 102.137375 
L 232.257293 102.132118 
L 232.255682 102.1293 
L 232.254819 102.12779 
L 232.254356 102.126981 
L 232.254108 102.126547 
L 232.253975 102.126314 
L 232.253904 102.126189 
L 232.253865 102.126122 
L 232.253845 102.126087 
L 232.253834 102.126067 
L 232.253828 102.126057 
L 232.253825 102.126052 
L 232.253823 102.126049 
L 232.253822 102.126047 
L 232.253822 102.126046 
L 232.253822 102.126046 
L 232.253821 102.126046 
L 232.253821 102.126045 
L 232.253821 102.126045 
L 232.253821 102.126045 
L 232.253821 102.126045 
L 232.253821 102.126045 
L 232.253821 102.126045 
L 232.253821 102.126045 
L 232.253821 102.126045 
L 232.253821 102.126045 
L 232.253821 102.126045 
L 232.253821 102.126045 
L 232.253821 102.126045 
L 232.253821 102.126045 
L 232.253821 102.126045 
L 232.253821 102.126045 
L 232.253821 102.126045 
L 232.253821 102.126045 
L 232.253821 102.126045 
L 232.253821 102.126045 
L 232.253821 102.126045 
L 232.253821 102.126045 
L 232.253821 102.126045 
L 232.253821 102.126045 
L 232.253821 102.126045 
" clip-path="url(#p484495f799)" style="fill: none; stroke: #0000ff; stroke-width: 1.5"/>
    <path d="M 167.112235 138.364734 
L 170.269289 135.782596 
L 161.709864 132.183382 
L 148.914256 127.881048 
L 133.395006 122.853055 
L 121.759619 119.341 
L 121.759619 119.341 
L 121.759619 119.341 
L 121.759619 119.341 
L 121.759619 119.341 
L 121.759619 119.341 
L 121.759619 119.341 
L 121.759619 119.341 
L 121.759619 119.341 
L 121.759619 119.341 
L 121.759619 119.341 
L 121.759619 119.341 
L 121.759619 119.341 
L 121.759619 119.341 
L 121.759619 119.341 
L 121.759619 119.341 
L 121.759619 119.341 
L 121.759619 119.341 
L 121.759619 119.341 
L 121.759619 119.341 
L 121.759619 119.341 
L 121.759619 119.341 
L 121.759619 119.341 
L 121.759619 119.341 
L 121.759619 119.341 
L 121.759619 119.341 
L 121.759619 119.341 
L 121.759619 119.341 
L 121.759619 119.341 
L 121.759619 119.341 
L 121.759619 119.341 
L 121.759619 119.341 
L 121.759619 119.341 
L 121.759619 119.341 
L 121.759619 119.341 
L 121.759619 119.341 
L 121.759619 119.341 
L 121.759619 119.341 
L 121.759619 119.341 
L 121.759619 119.341 
L 121.759619 119.341 
L 121.759619 119.341 
L 121.759619 119.341 
L 121.759619 119.341 
L 121.759619 119.341 
L 121.759619 119.341 
" clip-path="url(#p484495f799)" style="fill: none; stroke: #0000ff; stroke-width: 1.5"/>
    <path d="M 192.803094 193.389729 
L 190.855546 194.266753 
L 189.813658 194.735938 
L 189.255762 194.98717 
L 188.956882 195.121763 
L 188.796721 195.193886 
L 188.710884 195.232541 
L 188.664877 195.253259 
L 188.640216 195.264364 
L 188.626998 195.270317 
L 188.619913 195.273507 
L 188.616115 195.275218 
L 188.614079 195.276134 
L 188.612988 195.276626 
L 188.612403 195.276889 
L 188.612089 195.27703 
L 188.611921 195.277106 
L 188.611831 195.277147 
L 188.611783 195.277168 
L 188.611757 195.27718 
L 188.611743 195.277186 
L 188.611736 195.27719 
L 188.611732 195.277191 
L 188.611729 195.277192 
L 188.611728 195.277193 
L 188.611728 195.277193 
L 188.611727 195.277193 
L 188.611727 195.277193 
L 188.611727 195.277193 
L 188.611727 195.277193 
L 188.611727 195.277193 
L 188.611727 195.277193 
L 188.611727 195.277193 
L 188.611727 195.277193 
L 188.611727 195.277193 
L 188.611727 195.277193 
L 188.611727 195.277193 
L 188.611727 195.277193 
L 188.611727 195.277193 
L 188.611727 195.277193 
L 188.611727 195.277193 
L 188.611727 195.277193 
L 188.611727 195.277193 
L 188.611727 195.277193 
L 188.611727 195.277193 
L 188.611727 195.277193 
L 188.611727 195.277193 
L 188.611727 195.277193 
L 188.611727 195.277193 
L 188.611727 195.277193 
L 188.611727 195.277193 
" clip-path="url(#p484495f799)" style="fill: none; stroke: #0000ff; stroke-width: 1.5"/>
    <path d="M 234.033423 208.029399 
L 251.818547 220.652895 
L 257.578289 231.979523 
L 260.698072 244.291275 
L 263.51664 258.427134 
L 264.315793 267.927531 
L 264.315793 267.927531 
L 264.315793 267.927531 
L 264.315793 267.927531 
L 264.315793 267.927531 
L 264.315793 267.927531 
L 264.315793 267.927531 
L 264.315793 267.927531 
L 264.315793 267.927531 
L 264.315793 267.927531 
L 264.315793 267.927531 
L 264.315793 267.927531 
L 264.315793 267.927531 
L 264.315793 267.927531 
L 264.315793 267.927531 
L 264.315793 267.927531 
L 264.315793 267.927531 
L 264.315793 267.927531 
L 264.315793 267.927531 
L 264.315793 267.927531 
L 264.315793 267.927531 
L 264.315793 267.927531 
L 264.315793 267.927531 
L 264.315793 267.927531 
L 264.315793 267.927531 
L 264.315793 267.927531 
L 264.315793 267.927531 
L 264.315793 267.927531 
L 264.315793 267.927531 
L 264.315793 267.927531 
L 264.315793 267.927531 
L 264.315793 267.927531 
L 264.315793 267.927531 
L 264.315793 267.927531 
L 264.315793 267.927531 
L 264.315793 267.927531 
L 264.315793 267.927531 
L 264.315793 267.927531 
L 264.315793 267.927531 
L 264.315793 267.927531 
L 264.315793 267.927531 
L 264.315793 267.927531 
L 264.315793 267.927531 
L 264.315793 267.927531 
L 264.315793 267.927531 
L 264.315793 267.927531 
" clip-path="url(#p484495f799)" style="fill: none; stroke: #0000ff; stroke-width: 1.5"/>
    <path d="M 234.033423 157.683217 
L 242.484218 158.456519 
L 244.427245 158.634318 
L 244.863742 158.67426 
L 244.961285 158.683186 
L 244.983057 158.685178 
L 244.987916 158.685623 
L 244.989 158.685722 
L 244.989242 158.685744 
L 244.989296 158.685749 
L 244.989308 158.68575 
L 244.989311 158.685751 
L 244.989311 158.685751 
L 244.989311 158.685751 
L 244.989311 158.685751 
L 244.989311 158.685751 
L 244.989311 158.685751 
L 244.989311 158.685751 
L 244.989311 158.685751 
L 244.989311 158.685751 
L 244.989311 158.685751 
L 244.989311 158.685751 
L 244.989311 158.685751 
L 244.989311 158.685751 
L 244.989311 158.685751 
L 244.989311 158.685751 
L 244.989311 158.685751 
L 244.989311 158.685751 
L 244.989311 158.685751 
L 244.989311 158.685751 
L 244.989311 158.685751 
L 244.989311 158.685751 
L 244.989311 158.685751 
L 244.989311 158.685751 
L 244.989311 158.685751 
L 244.989311 158.685751 
L 244.989311 158.685751 
L 244.989311 158.685751 
L 244.989311 158.685751 
L 244.989311 158.685751 
L 244.989311 158.685751 
L 244.989311 158.685751 
L 244.989311 158.685751 
L 244.989311 158.685751 
L 244.989311 158.685751 
L 244.989311 158.685751 
L 244.989311 158.685751 
L 244.989311 158.685751 
L 244.989311 158.685751 
L 244.989311 158.685751 
L 244.989311 158.685751 
" clip-path="url(#p484495f799)" style="fill: none; stroke: #0000ff; stroke-width: 1.5"/>
   </g>
   <g id="legend_1">
    <g id="patch_6">
     <path d="M 73.254688 334.563802 
L 387.545313 334.563802 
Q 389.545313 334.563802 389.545313 332.563802 
L 389.545313 318.885677 
Q 389.545313 316.885677 387.545313 316.885677 
L 73.254688 316.885677 
Q 71.254688 316.885677 71.254688 318.885677 
L 71.254688 332.563802 
Q 71.254688 334.563802 73.254688 334.563802 
z
" style="fill: #ffffff; opacity: 0.8; stroke: #cccccc; stroke-linejoin: miter"/>
    </g>
    <g id="line2d_19">
     <path d="M 75.254688 324.984114 
L 95.254688 324.984114 
" style="fill: none; stroke: #0000ff; stroke-width: 1.5"/>
    </g>
    <g id="text_17">
     <!-- State Evolution -->
     <g transform="translate(103.254688 328.484114) scale(0.1 -0.1)">
      <defs>
       <path id="DejaVuSans-53" d="M 3425 4513 
L 3425 3897 
Q 3066 4069 2747 4153 
Q 2428 4238 2131 4238 
Q 1616 4238 1336 4038 
Q 1056 3838 1056 3469 
Q 1056 3159 1242 3001 
Q 1428 2844 1947 2747 
L 2328 2669 
Q 3034 2534 3370 2195 
Q 3706 1856 3706 1288 
Q 3706 609 3251 259 
Q 2797 -91 1919 -91 
Q 1588 -91 1214 -16 
Q 841 59 441 206 
L 441 856 
Q 825 641 1194 531 
Q 1563 422 1919 422 
Q 2459 422 2753 634 
Q 3047 847 3047 1241 
Q 3047 1584 2836 1778 
Q 2625 1972 2144 2069 
L 1759 2144 
Q 1053 2284 737 2584 
Q 422 2884 422 3419 
Q 422 4038 858 4394 
Q 1294 4750 2059 4750 
Q 2388 4750 2728 4690 
Q 3069 4631 3425 4513 
z
" transform="scale(0.015625)"/>
       <path id="DejaVuSans-45" d="M 628 4666 
L 3578 4666 
L 3578 4134 
L 1259 4134 
L 1259 2753 
L 3481 2753 
L 3481 2222 
L 1259 2222 
L 1259 531 
L 3634 531 
L 3634 0 
L 628 0 
L 628 4666 
z
" transform="scale(0.015625)"/>
      </defs>
      <use xlink:href="#DejaVuSans-53"/>
      <use xlink:href="#DejaVuSans-74" x="63.476562"/>
      <use xlink:href="#DejaVuSans-61" x="102.685547"/>
      <use xlink:href="#DejaVuSans-74" x="163.964844"/>
      <use xlink:href="#DejaVuSans-65" x="203.173828"/>
      <use xlink:href="#DejaVuSans-20" x="264.697266"/>
      <use xlink:href="#DejaVuSans-45" x="296.484375"/>
      <use xlink:href="#DejaVuSans-76" x="359.667969"/>
      <use xlink:href="#DejaVuSans-6f" x="418.847656"/>
      <use xlink:href="#DejaVuSans-6c" x="480.029297"/>
      <use xlink:href="#DejaVuSans-75" x="507.8125"/>
      <use xlink:href="#DejaVuSans-74" x="571.191406"/>
      <use xlink:href="#DejaVuSans-69" x="610.400391"/>
      <use xlink:href="#DejaVuSans-6f" x="638.183594"/>
      <use xlink:href="#DejaVuSans-6e" x="699.365234"/>
     </g>
    </g>
    <g id="Path3DCollection_3">
     <defs>
      <path id="m355b36198a" d="M 0 -2.236068 
L -0.502029 -0.690983 
L -2.126627 -0.690983 
L -0.812299 0.263932 
L -1.314328 1.809017 
L -0 0.854102 
L 1.314328 1.809017 
L 0.812299 0.263932 
L 2.126627 -0.690983 
L 0.502029 -0.690983 
z
" style="stroke: #008000"/>
     </defs>
     <g>
      <use xlink:href="#m355b36198a" x="209.529688" y="325.859114" style="fill: #008000; stroke: #008000"/>
     </g>
    </g>
    <g id="text_18">
     <!-- Initial State -->
     <g transform="translate(227.529688 328.484114) scale(0.1 -0.1)">
      <defs>
       <path id="DejaVuSans-49" d="M 628 4666 
L 1259 4666 
L 1259 0 
L 628 0 
L 628 4666 
z
" transform="scale(0.015625)"/>
      </defs>
      <use xlink:href="#DejaVuSans-49"/>
      <use xlink:href="#DejaVuSans-6e" x="29.492188"/>
      <use xlink:href="#DejaVuSans-69" x="92.871094"/>
      <use xlink:href="#DejaVuSans-74" x="120.654297"/>
      <use xlink:href="#DejaVuSans-69" x="159.863281"/>
      <use xlink:href="#DejaVuSans-61" x="187.646484"/>
      <use xlink:href="#DejaVuSans-6c" x="248.925781"/>
      <use xlink:href="#DejaVuSans-20" x="276.708984"/>
      <use xlink:href="#DejaVuSans-53" x="308.496094"/>
      <use xlink:href="#DejaVuSans-74" x="371.972656"/>
      <use xlink:href="#DejaVuSans-61" x="411.181641"/>
      <use xlink:href="#DejaVuSans-74" x="472.460938"/>
      <use xlink:href="#DejaVuSans-65" x="511.669922"/>
     </g>
    </g>
    <g id="Path3DCollection_4">
     <defs>
      <path id="m9c4d906ff5" d="M -2.236068 2.236068 
L 2.236068 -2.236068 
M -2.236068 -2.236068 
L 2.236068 2.236068 
" style="stroke: #ff0000; stroke-width: 1.5"/>
     </defs>
     <g>
      <use xlink:href="#m9c4d906ff5" x="314.848438" y="325.859114" style="fill: #ff0000; stroke: #ff0000; stroke-width: 1.5"/>
     </g>
    </g>
    <g id="text_19">
     <!-- Final State -->
     <g transform="translate(332.848438 328.484114) scale(0.1 -0.1)">
      <defs>
       <path id="DejaVuSans-46" d="M 628 4666 
L 3309 4666 
L 3309 4134 
L 1259 4134 
L 1259 2759 
L 3109 2759 
L 3109 2228 
L 1259 2228 
L 1259 0 
L 628 0 
L 628 4666 
z
" transform="scale(0.015625)"/>
      </defs>
      <use xlink:href="#DejaVuSans-46"/>
      <use xlink:href="#DejaVuSans-69" x="50.269531"/>
      <use xlink:href="#DejaVuSans-6e" x="78.052734"/>
      <use xlink:href="#DejaVuSans-61" x="141.431641"/>
      <use xlink:href="#DejaVuSans-6c" x="202.710938"/>
      <use xlink:href="#DejaVuSans-20" x="230.494141"/>
      <use xlink:href="#DejaVuSans-53" x="262.28125"/>
      <use xlink:href="#DejaVuSans-74" x="325.757812"/>
      <use xlink:href="#DejaVuSans-61" x="364.966797"/>
      <use xlink:href="#DejaVuSans-74" x="426.246094"/>
      <use xlink:href="#DejaVuSans-65" x="465.455078"/>
     </g>
    </g>
   </g>
  </g>
 </g>
 <defs>
  <clipPath id="p484495f799">
   <rect x="95.96336" y="26.88" width="268.87328" height="268.87328"/>
  </clipPath>
 </defs>
</svg>
