<?xml version="1.0" encoding="utf-8" standalone="no"?>
<!DOCTYPE svg PUBLIC "-//W3C//DTD SVG 1.1//EN"
  "http://www.w3.org/Graphics/SVG/1.1/DTD/svg11.dtd">
<svg xmlns:xlink="http://www.w3.org/1999/xlink" width="460.8pt" height="345.6pt" viewBox="0 0 460.8 345.6" xmlns="http://www.w3.org/2000/svg" version="1.1">
 <metadata>
  <rdf:RDF xmlns:dc="http://purl.org/dc/elements/1.1/" xmlns:cc="http://creativecommons.org/ns#" xmlns:rdf="http://www.w3.org/1999/02/22-rdf-syntax-ns#">
   <cc:Work>
    <dc:type rdf:resource="http://purl.org/dc/dcmitype/StillImage"/>
    <dc:date>2024-03-14T12:38:07.184733</dc:date>
    <dc:format>image/svg+xml</dc:format>
    <dc:creator>
     <cc:Agent>
      <dc:title>Matplotlib v3.7.1, https://matplotlib.org/</dc:title>
     </cc:Agent>
    </dc:creator>
   </cc:Work>
  </rdf:RDF>
 </metadata>
 <defs>
  <style type="text/css">*{stroke-linejoin: round; stroke-linecap: butt}</style>
 </defs>
 <g id="figure_1">
  <g id="patch_1">
   <path d="M 0 345.6 
L 460.8 345.6 
L 460.8 0 
L 0 0 
z
" style="fill: #ffffff"/>
  </g>
  <g id="axes_1">
   <g id="patch_2">
    <path d="M 48.31 295.75328 
L 447.432857 295.75328 
L 447.432857 26.88 
L 48.31 26.88 
z
" style="fill: #ffffff"/>
   </g>
   <g id="LineCollection_1">
    <path d="M 294.232442 231.66876 
L 301.735242 243.054142 
L 310.452251 256.282069 
L 320.579971 271.650727 
L 332.346703 289.351535 
L 346.017696 289.351535 
L 361.901122 289.351535 
L 380.355031 289.351535 
L 401.795415 289.351535 
L 426.705587 289.351535 
L 437.929932 289.351535 
L 437.929932 289.351535 
L 437.929932 289.351535 
L 437.929932 289.351535 
L 437.929932 289.351535 
L 437.929932 289.351535 
L 437.929932 289.351535 
L 437.929932 289.351535 
L 437.929932 289.351535 
L 437.929932 289.351535 
L 437.929932 289.351535 
L 437.929932 289.351535 
L 437.929932 289.351535 
L 437.929932 289.351535 
L 437.929932 289.351535 
L 437.929932 289.351535 
L 437.929932 289.351535 
L 437.929932 289.351535 
L 437.929932 289.351535 
L 437.929932 289.351535 
L 437.929932 289.351535 
L 437.929932 289.351535 
L 437.929932 289.351535 
L 437.929932 289.351535 
L 437.929932 289.351535 
L 437.929932 289.351535 
L 437.929932 289.351535 
L 437.929932 289.351535 
L 437.929932 289.351535 
L 437.929932 289.351535 
L 437.929932 289.351535 
L 437.929932 289.351535 
L 437.929932 289.351535 
L 437.929932 289.351535 
L 437.929932 289.351535 
L 437.929932 289.351535 
L 437.929932 289.351535 
L 437.929932 289.351535 
L 437.929932 289.351535 
L 437.929932 289.351535 
L 437.929932 289.351535 
" clip-path="url(#pabd126d5e8)" style="fill: none; stroke: #0000ff; stroke-width: 1.5"/>
    <path d="M 392.086703 261.443259 
L 415.425672 277.647175 
L 437.929932 289.351535 
L 437.929932 289.351535 
L 437.929932 289.351535 
L 437.929932 289.351535 
L 437.929932 289.351535 
L 437.929932 289.351535 
L 437.929932 289.351535 
L 437.929932 289.351535 
L 437.929932 289.351535 
L 437.929932 289.351535 
L 437.929932 289.351535 
L 437.929932 289.351535 
L 437.929932 289.351535 
L 437.929932 289.351535 
L 437.929932 289.351535 
L 437.929932 289.351535 
L 437.929932 289.351535 
L 437.929932 289.351535 
L 437.929932 289.351535 
L 437.929932 289.351535 
L 437.929932 289.351535 
L 437.929932 289.351535 
L 437.929932 289.351535 
L 437.929932 289.351535 
L 437.929932 289.351535 
L 437.929932 289.351535 
L 437.929932 289.351535 
L 437.929932 289.351535 
L 437.929932 289.351535 
L 437.929932 289.351535 
L 437.929932 289.351535 
L 437.929932 289.351535 
L 437.929932 289.351535 
L 437.929932 289.351535 
L 437.929932 289.351535 
L 437.929932 289.351535 
L 437.929932 289.351535 
L 437.929932 289.351535 
L 437.929932 289.351535 
L 437.929932 289.351535 
L 437.929932 289.351535 
L 437.929932 289.351535 
L 437.929932 289.351535 
L 437.929932 289.351535 
L 437.929932 289.351535 
L 437.929932 289.351535 
L 437.929932 289.351535 
L 437.929932 289.351535 
L 437.929932 289.351535 
" clip-path="url(#pabd126d5e8)" style="fill: none; stroke: #0000ff; stroke-width: 1.5"/>
    <path d="M 138.29443 222.485902 
L 120.56112 232.385184 
L 99.957952 243.886507 
L 76.020487 257.249139 
L 57.812925 272.774303 
L 57.812925 289.351535 
L 57.812925 289.351535 
L 57.812925 289.351535 
L 57.812925 289.351535 
L 57.812925 289.351535 
L 57.812925 289.351535 
L 57.812925 289.351535 
L 57.812925 289.351535 
L 57.812925 289.351535 
L 57.812925 289.351535 
L 57.812925 289.351535 
L 57.812925 289.351535 
L 57.812925 289.351535 
L 57.812925 289.351535 
L 57.812925 289.351535 
L 57.812925 289.351535 
L 57.812925 289.351535 
L 57.812925 289.351535 
L 57.812925 289.351535 
L 57.812925 289.351535 
L 57.812925 289.351535 
L 57.812925 289.351535 
L 57.812925 289.351535 
L 57.812925 289.351535 
L 57.812925 289.351535 
L 57.812925 289.351535 
L 57.812925 289.351535 
L 57.812925 289.351535 
L 57.812925 289.351535 
L 57.812925 289.351535 
L 57.812925 289.351535 
L 57.812925 289.351535 
L 57.812925 289.351535 
L 57.812925 289.351535 
L 57.812925 289.351535 
L 57.812925 289.351535 
L 57.812925 289.351535 
L 57.812925 289.351535 
L 57.812925 289.351535 
L 57.812925 289.351535 
L 57.812925 289.351535 
L 57.812925 289.351535 
L 57.812925 289.351535 
L 57.812925 289.351535 
L 57.812925 289.351535 
L 57.812925 289.351535 
" clip-path="url(#pabd126d5e8)" style="fill: none; stroke: #0000ff; stroke-width: 1.5"/>
    <path d="M 379.170028 172.011377 
L 400.418637 173.742151 
L 425.105999 175.753024 
L 437.929932 178.089326 
L 437.929932 180.803721 
L 437.929932 183.957397 
L 437.929932 187.621447 
L 437.929932 191.878466 
L 437.929932 196.824416 
L 437.929932 202.57079 
L 437.929932 209.247124 
L 437.929932 217.003917 
L 437.929932 226.016026 
L 437.929932 236.486602 
L 437.929932 248.651676 
L 437.929932 262.785475 
L 437.929932 279.206607 
L 437.929932 289.351535 
L 437.929932 289.351535 
L 437.929932 289.351535 
L 437.929932 289.351535 
L 437.929932 289.351535 
L 437.929932 289.351535 
L 437.929932 289.351535 
L 437.929932 289.351535 
L 437.929932 289.351535 
L 437.929932 289.351535 
L 437.929932 289.351535 
L 437.929932 289.351535 
L 437.929932 289.351535 
L 437.929932 289.351535 
L 437.929932 289.351535 
L 437.929932 289.351535 
L 437.929932 289.351535 
L 437.929932 289.351535 
L 437.929932 289.351535 
L 437.929932 289.351535 
L 437.929932 289.351535 
L 437.929932 289.351535 
L 437.929932 289.351535 
L 437.929932 289.351535 
L 437.929932 289.351535 
L 437.929932 289.351535 
L 437.929932 289.351535 
L 437.929932 289.351535 
L 437.929932 289.351535 
L 437.929932 289.351535 
L 437.929932 289.351535 
L 437.929932 289.351535 
L 437.929932 289.351535 
L 437.929932 289.351535 
" clip-path="url(#pabd126d5e8)" style="fill: none; stroke: #0000ff; stroke-width: 1.5"/>
    <path d="M 434.897749 193.850648 
L 437.929932 199.115764 
L 437.929932 205.232957 
L 437.929932 212.340121 
L 437.929932 220.597467 
L 437.929932 230.191135 
L 437.929932 241.337387 
L 437.929932 254.287484 
L 437.929932 269.33335 
L 437.929932 286.814153 
L 437.929932 289.351535 
L 437.929932 289.351535 
L 437.929932 289.351535 
L 437.929932 289.351535 
L 437.929932 289.351535 
L 437.929932 289.351535 
L 437.929932 289.351535 
L 437.929932 289.351535 
L 437.929932 289.351535 
L 437.929932 289.351535 
L 437.929932 289.351535 
L 437.929932 289.351535 
L 437.929932 289.351535 
L 437.929932 289.351535 
L 437.929932 289.351535 
L 437.929932 289.351535 
L 437.929932 289.351535 
L 437.929932 289.351535 
L 437.929932 289.351535 
L 437.929932 289.351535 
L 437.929932 289.351535 
L 437.929932 289.351535 
L 437.929932 289.351535 
L 437.929932 289.351535 
L 437.929932 289.351535 
L 437.929932 289.351535 
L 437.929932 289.351535 
L 437.929932 289.351535 
L 437.929932 289.351535 
L 437.929932 289.351535 
L 437.929932 289.351535 
L 437.929932 289.351535 
L 437.929932 289.351535 
L 437.929932 289.351535 
L 437.929932 289.351535 
L 437.929932 289.351535 
L 437.929932 289.351535 
L 437.929932 289.351535 
L 437.929932 289.351535 
L 437.929932 289.351535 
L 437.929932 289.351535 
" clip-path="url(#pabd126d5e8)" style="fill: none; stroke: #0000ff; stroke-width: 1.5"/>
    <path d="M 294.586345 200.920553 
L 302.146418 207.329823 
L 310.929969 214.776331 
L 321.135001 223.42794 
L 332.991555 233.479675 
L 346.766907 245.158125 
L 362.771581 258.726548 
L 381.366361 274.490807 
L 402.970412 289.351535 
L 428.070738 289.351535 
L 437.929932 289.351535 
L 437.929932 289.351535 
L 437.929932 289.351535 
L 437.929932 289.351535 
L 437.929932 289.351535 
L 437.929932 289.351535 
L 437.929932 289.351535 
L 437.929932 289.351535 
L 437.929932 289.351535 
L 437.929932 289.351535 
L 437.929932 289.351535 
L 437.929932 289.351535 
L 437.929932 289.351535 
L 437.929932 289.351535 
L 437.929932 289.351535 
L 437.929932 289.351535 
L 437.929932 289.351535 
L 437.929932 289.351535 
L 437.929932 289.351535 
L 437.929932 289.351535 
L 437.929932 289.351535 
L 437.929932 289.351535 
L 437.929932 289.351535 
L 437.929932 289.351535 
L 437.929932 289.351535 
L 437.929932 289.351535 
L 437.929932 289.351535 
L 437.929932 289.351535 
L 437.929932 289.351535 
L 437.929932 289.351535 
L 437.929932 289.351535 
L 437.929932 289.351535 
L 437.929932 289.351535 
L 437.929932 289.351535 
L 437.929932 289.351535 
L 437.929932 289.351535 
L 437.929932 289.351535 
L 437.929932 289.351535 
L 437.929932 289.351535 
L 437.929932 289.351535 
L 437.929932 289.351535 
" clip-path="url(#pabd126d5e8)" style="fill: none; stroke: #0000ff; stroke-width: 1.5"/>
    <path d="M 330.694272 51.219373 
L 344.097844 33.401865 
L 359.670574 33.281745 
L 377.763504 33.281745 
L 398.784489 33.281745 
L 423.20739 33.281745 
L 437.929932 33.281745 
L 437.929932 33.281745 
L 437.929932 33.281745 
L 437.929932 33.281745 
L 437.929932 33.281745 
L 437.929932 33.281745 
L 437.929932 33.281745 
L 437.929932 33.281745 
L 437.929932 33.281745 
L 437.929932 33.281745 
L 437.929932 33.281745 
L 437.929932 33.281745 
L 437.929932 33.281745 
L 437.929932 33.281745 
L 437.929932 33.281745 
L 437.929932 33.281745 
L 437.929932 33.281745 
L 437.929932 33.281745 
L 437.929932 33.281745 
L 437.929932 33.281745 
L 437.929932 33.281745 
L 437.929932 33.281745 
L 437.929932 33.281745 
L 437.929932 33.281745 
L 437.929932 33.281745 
L 437.929932 33.281745 
L 437.929932 33.281745 
L 437.929932 33.281745 
L 437.929932 33.281745 
L 437.929932 33.281745 
L 437.929932 33.281745 
L 437.929932 33.281745 
L 437.929932 33.281745 
L 437.929932 33.281745 
L 437.929932 33.281745 
L 437.929932 33.281745 
L 437.929932 33.281745 
L 437.929932 33.281745 
L 437.929932 33.281745 
L 437.929932 33.281745 
L 437.929932 33.281745 
L 437.929932 33.281745 
L 437.929932 33.281745 
L 437.929932 33.281745 
L 437.929932 33.281745 
" clip-path="url(#pabd126d5e8)" style="fill: none; stroke: #0000ff; stroke-width: 1.5"/>
    <path d="M 107.110995 103.521596 
L 84.331137 94.168379 
L 57.864718 83.301491 
L 57.812925 70.675969 
L 57.812925 56.007204 
L 57.812925 38.964531 
L 57.812925 33.281745 
L 57.812925 33.281745 
L 57.812925 33.281745 
L 57.812925 33.281745 
L 57.812925 33.281745 
L 57.812925 33.281745 
L 57.812925 33.281745 
L 57.812925 33.281745 
L 57.812925 33.281745 
L 57.812925 33.281745 
L 57.812925 33.281745 
L 57.812925 33.281745 
L 57.812925 33.281745 
L 57.812925 33.281745 
L 57.812925 33.281745 
L 57.812925 33.281745 
L 57.812925 33.281745 
L 57.812925 33.281745 
L 57.812925 33.281745 
L 57.812925 33.281745 
L 57.812925 33.281745 
L 57.812925 33.281745 
L 57.812925 33.281745 
L 57.812925 33.281745 
L 57.812925 33.281745 
L 57.812925 33.281745 
L 57.812925 33.281745 
L 57.812925 33.281745 
L 57.812925 33.281745 
L 57.812925 33.281745 
L 57.812925 33.281745 
L 57.812925 33.281745 
L 57.812925 33.281745 
L 57.812925 33.281745 
L 57.812925 33.281745 
L 57.812925 33.281745 
L 57.812925 33.281745 
L 57.812925 33.281745 
L 57.812925 33.281745 
L 57.812925 33.281745 
L 57.812925 33.281745 
L 57.812925 33.281745 
L 57.812925 33.281745 
L 57.812925 33.281745 
L 57.812925 33.281745 
" clip-path="url(#pabd126d5e8)" style="fill: none; stroke: #0000ff; stroke-width: 1.5"/>
    <path d="M 331.274556 124.416921 
L 344.772038 118.445282 
L 360.453875 111.507229 
L 378.67357 103.44636 
L 399.841835 94.080967 
L 424.435851 83.199933 
L 437.929932 70.557975 
L 437.929932 55.870115 
L 437.929932 38.805257 
L 437.929932 33.281745 
L 437.929932 33.281745 
L 437.929932 33.281745 
L 437.929932 33.281745 
L 437.929932 33.281745 
L 437.929932 33.281745 
L 437.929932 33.281745 
L 437.929932 33.281745 
L 437.929932 33.281745 
L 437.929932 33.281745 
L 437.929932 33.281745 
L 437.929932 33.281745 
L 437.929932 33.281745 
L 437.929932 33.281745 
L 437.929932 33.281745 
L 437.929932 33.281745 
L 437.929932 33.281745 
L 437.929932 33.281745 
L 437.929932 33.281745 
L 437.929932 33.281745 
L 437.929932 33.281745 
L 437.929932 33.281745 
L 437.929932 33.281745 
L 437.929932 33.281745 
L 437.929932 33.281745 
L 437.929932 33.281745 
L 437.929932 33.281745 
L 437.929932 33.281745 
L 437.929932 33.281745 
L 437.929932 33.281745 
L 437.929932 33.281745 
L 437.929932 33.281745 
L 437.929932 33.281745 
L 437.929932 33.281745 
L 437.929932 33.281745 
L 437.929932 33.281745 
L 437.929932 33.281745 
L 437.929932 33.281745 
L 437.929932 33.281745 
L 437.929932 33.281745 
L 437.929932 33.281745 
L 437.929932 33.281745 
" clip-path="url(#pabd126d5e8)" style="fill: none; stroke: #0000ff; stroke-width: 1.5"/>
    <path d="M 184.685414 224.509407 
L 174.459753 234.736161 
L 162.57923 246.617954 
L 148.776032 260.422627 
L 132.739003 276.46137 
L 114.106635 289.351535 
L 92.458911 289.351535 
L 67.307843 289.351535 
L 57.812925 289.351535 
L 57.812925 289.351535 
L 57.812925 289.351535 
L 57.812925 289.351535 
L 57.812925 289.351535 
L 57.812925 289.351535 
L 57.812925 289.351535 
L 57.812925 289.351535 
L 57.812925 289.351535 
L 57.812925 289.351535 
L 57.812925 289.351535 
L 57.812925 289.351535 
L 57.812925 289.351535 
L 57.812925 289.351535 
L 57.812925 289.351535 
L 57.812925 289.351535 
L 57.812925 289.351535 
L 57.812925 289.351535 
L 57.812925 289.351535 
L 57.812925 289.351535 
L 57.812925 289.351535 
L 57.812925 289.351535 
L 57.812925 289.351535 
L 57.812925 289.351535 
L 57.812925 289.351535 
L 57.812925 289.351535 
L 57.812925 289.351535 
L 57.812925 289.351535 
L 57.812925 289.351535 
L 57.812925 289.351535 
L 57.812925 289.351535 
L 57.812925 289.351535 
L 57.812925 289.351535 
L 57.812925 289.351535 
L 57.812925 289.351535 
L 57.812925 289.351535 
L 57.812925 289.351535 
L 57.812925 289.351535 
L 57.812925 289.351535 
L 57.812925 289.351535 
L 57.812925 289.351535 
L 57.812925 289.351535 
L 57.812925 289.351535 
" clip-path="url(#pabd126d5e8)" style="fill: none; stroke: #0000ff; stroke-width: 1.5"/>
   </g>
   <g id="PathCollection_1">
    <defs>
     <path id="mce9fef0b4c" d="M 0 -3 
L -0.673542 -0.927051 
L -2.85317 -0.927051 
L -1.089814 0.354102 
L -1.763356 2.427051 
L -0 1.145898 
L 1.763356 2.427051 
L 1.089814 0.354102 
L 2.85317 -0.927051 
L 0.673542 -0.927051 
z
" style="stroke: #008000"/>
    </defs>
    <g clip-path="url(#pabd126d5e8)">
     <use xlink:href="#mce9fef0b4c" x="294.232442" y="231.66876" style="fill: #008000; stroke: #008000"/>
     <use xlink:href="#mce9fef0b4c" x="392.086703" y="261.443259" style="fill: #008000; stroke: #008000"/>
     <use xlink:href="#mce9fef0b4c" x="138.29443" y="222.485902" style="fill: #008000; stroke: #008000"/>
     <use xlink:href="#mce9fef0b4c" x="379.170028" y="172.011377" style="fill: #008000; stroke: #008000"/>
     <use xlink:href="#mce9fef0b4c" x="434.897749" y="193.850648" style="fill: #008000; stroke: #008000"/>
     <use xlink:href="#mce9fef0b4c" x="294.586345" y="200.920553" style="fill: #008000; stroke: #008000"/>
     <use xlink:href="#mce9fef0b4c" x="330.694272" y="51.219373" style="fill: #008000; stroke: #008000"/>
     <use xlink:href="#mce9fef0b4c" x="107.110995" y="103.521596" style="fill: #008000; stroke: #008000"/>
     <use xlink:href="#mce9fef0b4c" x="331.274556" y="124.416921" style="fill: #008000; stroke: #008000"/>
     <use xlink:href="#mce9fef0b4c" x="184.685414" y="224.509407" style="fill: #008000; stroke: #008000"/>
    </g>
   </g>
   <g id="PathCollection_2">
    <defs>
     <path id="m5aeb503563" d="M -3 3 
L 3 -3 
M -3 -3 
L 3 3 
" style="stroke: #ff0000; stroke-width: 1.5"/>
    </defs>
    <g clip-path="url(#pabd126d5e8)">
     <use xlink:href="#m5aeb503563" x="437.929932" y="289.351535" style="fill: #ff0000; stroke: #ff0000; stroke-width: 1.5"/>
     <use xlink:href="#m5aeb503563" x="437.929932" y="289.351535" style="fill: #ff0000; stroke: #ff0000; stroke-width: 1.5"/>
     <use xlink:href="#m5aeb503563" x="57.812925" y="289.351535" style="fill: #ff0000; stroke: #ff0000; stroke-width: 1.5"/>
     <use xlink:href="#m5aeb503563" x="437.929932" y="289.351535" style="fill: #ff0000; stroke: #ff0000; stroke-width: 1.5"/>
     <use xlink:href="#m5aeb503563" x="437.929932" y="289.351535" style="fill: #ff0000; stroke: #ff0000; stroke-width: 1.5"/>
     <use xlink:href="#m5aeb503563" x="437.929932" y="289.351535" style="fill: #ff0000; stroke: #ff0000; stroke-width: 1.5"/>
     <use xlink:href="#m5aeb503563" x="437.929932" y="33.281745" style="fill: #ff0000; stroke: #ff0000; stroke-width: 1.5"/>
     <use xlink:href="#m5aeb503563" x="57.812925" y="33.281745" style="fill: #ff0000; stroke: #ff0000; stroke-width: 1.5"/>
     <use xlink:href="#m5aeb503563" x="437.929932" y="33.281745" style="fill: #ff0000; stroke: #ff0000; stroke-width: 1.5"/>
     <use xlink:href="#m5aeb503563" x="57.812925" y="289.351535" style="fill: #ff0000; stroke: #ff0000; stroke-width: 1.5"/>
    </g>
   </g>
   <g id="matplotlib.axis_1">
    <g id="xtick_1">
     <g id="line2d_1">
      <defs>
       <path id="m17b74ba51f" d="M 0 0 
L 0 3.5 
" style="stroke: #000000; stroke-width: 0.8"/>
      </defs>
      <g>
       <use xlink:href="#m17b74ba51f" x="57.812925" y="295.75328" style="stroke: #000000; stroke-width: 0.8"/>
      </g>
     </g>
     <g id="text_1">
      <!-- −1.00 -->
      <g transform="translate(42.490269 310.351717) scale(0.1 -0.1)">
       <defs>
        <path id="DejaVuSans-2212" d="M 678 2272 
L 4684 2272 
L 4684 1741 
L 678 1741 
L 678 2272 
z
" transform="scale(0.015625)"/>
        <path id="DejaVuSans-31" d="M 794 531 
L 1825 531 
L 1825 4091 
L 703 3866 
L 703 4441 
L 1819 4666 
L 2450 4666 
L 2450 531 
L 3481 531 
L 3481 0 
L 794 0 
L 794 531 
z
" transform="scale(0.015625)"/>
        <path id="DejaVuSans-2e" d="M 684 794 
L 1344 794 
L 1344 0 
L 684 0 
L 684 794 
z
" transform="scale(0.015625)"/>
        <path id="DejaVuSans-30" d="M 2034 4250 
Q 1547 4250 1301 3770 
Q 1056 3291 1056 2328 
Q 1056 1369 1301 889 
Q 1547 409 2034 409 
Q 2525 409 2770 889 
Q 3016 1369 3016 2328 
Q 3016 3291 2770 3770 
Q 2525 4250 2034 4250 
z
M 2034 4750 
Q 2819 4750 3233 4129 
Q 3647 3509 3647 2328 
Q 3647 1150 3233 529 
Q 2819 -91 2034 -91 
Q 1250 -91 836 529 
Q 422 1150 422 2328 
Q 422 3509 836 4129 
Q 1250 4750 2034 4750 
z
" transform="scale(0.015625)"/>
       </defs>
       <use xlink:href="#DejaVuSans-2212"/>
       <use xlink:href="#DejaVuSans-31" x="83.789062"/>
       <use xlink:href="#DejaVuSans-2e" x="147.412109"/>
       <use xlink:href="#DejaVuSans-30" x="179.199219"/>
       <use xlink:href="#DejaVuSans-30" x="242.822266"/>
      </g>
     </g>
    </g>
    <g id="xtick_2">
     <g id="line2d_2">
      <g>
       <use xlink:href="#m17b74ba51f" x="105.327551" y="295.75328" style="stroke: #000000; stroke-width: 0.8"/>
      </g>
     </g>
     <g id="text_2">
      <!-- −0.75 -->
      <g transform="translate(90.004895 310.351717) scale(0.1 -0.1)">
       <defs>
        <path id="DejaVuSans-37" d="M 525 4666 
L 3525 4666 
L 3525 4397 
L 1831 0 
L 1172 0 
L 2766 4134 
L 525 4134 
L 525 4666 
z
" transform="scale(0.015625)"/>
        <path id="DejaVuSans-35" d="M 691 4666 
L 3169 4666 
L 3169 4134 
L 1269 4134 
L 1269 2991 
Q 1406 3038 1543 3061 
Q 1681 3084 1819 3084 
Q 2600 3084 3056 2656 
Q 3513 2228 3513 1497 
Q 3513 744 3044 326 
Q 2575 -91 1722 -91 
Q 1428 -91 1123 -41 
Q 819 9 494 109 
L 494 744 
Q 775 591 1075 516 
Q 1375 441 1709 441 
Q 2250 441 2565 725 
Q 2881 1009 2881 1497 
Q 2881 1984 2565 2268 
Q 2250 2553 1709 2553 
Q 1456 2553 1204 2497 
Q 953 2441 691 2322 
L 691 4666 
z
" transform="scale(0.015625)"/>
       </defs>
       <use xlink:href="#DejaVuSans-2212"/>
       <use xlink:href="#DejaVuSans-30" x="83.789062"/>
       <use xlink:href="#DejaVuSans-2e" x="147.412109"/>
       <use xlink:href="#DejaVuSans-37" x="179.199219"/>
       <use xlink:href="#DejaVuSans-35" x="242.822266"/>
      </g>
     </g>
    </g>
    <g id="xtick_3">
     <g id="line2d_3">
      <g>
       <use xlink:href="#m17b74ba51f" x="152.842177" y="295.75328" style="stroke: #000000; stroke-width: 0.8"/>
      </g>
     </g>
     <g id="text_3">
      <!-- −0.50 -->
      <g transform="translate(137.519521 310.351717) scale(0.1 -0.1)">
       <use xlink:href="#DejaVuSans-2212"/>
       <use xlink:href="#DejaVuSans-30" x="83.789062"/>
       <use xlink:href="#DejaVuSans-2e" x="147.412109"/>
       <use xlink:href="#DejaVuSans-35" x="179.199219"/>
       <use xlink:href="#DejaVuSans-30" x="242.822266"/>
      </g>
     </g>
    </g>
    <g id="xtick_4">
     <g id="line2d_4">
      <g>
       <use xlink:href="#m17b74ba51f" x="200.356803" y="295.75328" style="stroke: #000000; stroke-width: 0.8"/>
      </g>
     </g>
     <g id="text_4">
      <!-- −0.25 -->
      <g transform="translate(185.034146 310.351717) scale(0.1 -0.1)">
       <defs>
        <path id="DejaVuSans-32" d="M 1228 531 
L 3431 531 
L 3431 0 
L 469 0 
L 469 531 
Q 828 903 1448 1529 
Q 2069 2156 2228 2338 
Q 2531 2678 2651 2914 
Q 2772 3150 2772 3378 
Q 2772 3750 2511 3984 
Q 2250 4219 1831 4219 
Q 1534 4219 1204 4116 
Q 875 4013 500 3803 
L 500 4441 
Q 881 4594 1212 4672 
Q 1544 4750 1819 4750 
Q 2544 4750 2975 4387 
Q 3406 4025 3406 3419 
Q 3406 3131 3298 2873 
Q 3191 2616 2906 2266 
Q 2828 2175 2409 1742 
Q 1991 1309 1228 531 
z
" transform="scale(0.015625)"/>
       </defs>
       <use xlink:href="#DejaVuSans-2212"/>
       <use xlink:href="#DejaVuSans-30" x="83.789062"/>
       <use xlink:href="#DejaVuSans-2e" x="147.412109"/>
       <use xlink:href="#DejaVuSans-32" x="179.199219"/>
       <use xlink:href="#DejaVuSans-35" x="242.822266"/>
      </g>
     </g>
    </g>
    <g id="xtick_5">
     <g id="line2d_5">
      <g>
       <use xlink:href="#m17b74ba51f" x="247.871429" y="295.75328" style="stroke: #000000; stroke-width: 0.8"/>
      </g>
     </g>
     <g id="text_5">
      <!-- 0.00 -->
      <g transform="translate(236.738616 310.351717) scale(0.1 -0.1)">
       <use xlink:href="#DejaVuSans-30"/>
       <use xlink:href="#DejaVuSans-2e" x="63.623047"/>
       <use xlink:href="#DejaVuSans-30" x="95.410156"/>
       <use xlink:href="#DejaVuSans-30" x="159.033203"/>
      </g>
     </g>
    </g>
    <g id="xtick_6">
     <g id="line2d_6">
      <g>
       <use xlink:href="#m17b74ba51f" x="295.386054" y="295.75328" style="stroke: #000000; stroke-width: 0.8"/>
      </g>
     </g>
     <g id="text_6">
      <!-- 0.25 -->
      <g transform="translate(284.253242 310.351717) scale(0.1 -0.1)">
       <use xlink:href="#DejaVuSans-30"/>
       <use xlink:href="#DejaVuSans-2e" x="63.623047"/>
       <use xlink:href="#DejaVuSans-32" x="95.410156"/>
       <use xlink:href="#DejaVuSans-35" x="159.033203"/>
      </g>
     </g>
    </g>
    <g id="xtick_7">
     <g id="line2d_7">
      <g>
       <use xlink:href="#m17b74ba51f" x="342.90068" y="295.75328" style="stroke: #000000; stroke-width: 0.8"/>
      </g>
     </g>
     <g id="text_7">
      <!-- 0.50 -->
      <g transform="translate(331.767868 310.351717) scale(0.1 -0.1)">
       <use xlink:href="#DejaVuSans-30"/>
       <use xlink:href="#DejaVuSans-2e" x="63.623047"/>
       <use xlink:href="#DejaVuSans-35" x="95.410156"/>
       <use xlink:href="#DejaVuSans-30" x="159.033203"/>
      </g>
     </g>
    </g>
    <g id="xtick_8">
     <g id="line2d_8">
      <g>
       <use xlink:href="#m17b74ba51f" x="390.415306" y="295.75328" style="stroke: #000000; stroke-width: 0.8"/>
      </g>
     </g>
     <g id="text_8">
      <!-- 0.75 -->
      <g transform="translate(379.282494 310.351717) scale(0.1 -0.1)">
       <use xlink:href="#DejaVuSans-30"/>
       <use xlink:href="#DejaVuSans-2e" x="63.623047"/>
       <use xlink:href="#DejaVuSans-37" x="95.410156"/>
       <use xlink:href="#DejaVuSans-35" x="159.033203"/>
      </g>
     </g>
    </g>
    <g id="xtick_9">
     <g id="line2d_9">
      <g>
       <use xlink:href="#m17b74ba51f" x="437.929932" y="295.75328" style="stroke: #000000; stroke-width: 0.8"/>
      </g>
     </g>
     <g id="text_9">
      <!-- 1.00 -->
      <g transform="translate(426.797119 310.351717) scale(0.1 -0.1)">
       <use xlink:href="#DejaVuSans-31"/>
       <use xlink:href="#DejaVuSans-2e" x="63.623047"/>
       <use xlink:href="#DejaVuSans-30" x="95.410156"/>
       <use xlink:href="#DejaVuSans-30" x="159.033203"/>
      </g>
     </g>
    </g>
   </g>
   <g id="matplotlib.axis_2">
    <g id="ytick_1">
     <g id="line2d_10">
      <defs>
       <path id="m9fbcaf5b91" d="M 0 0 
L -3.5 0 
" style="stroke: #000000; stroke-width: 0.8"/>
      </defs>
      <g>
       <use xlink:href="#m9fbcaf5b91" x="48.31" y="289.351535" style="stroke: #000000; stroke-width: 0.8"/>
      </g>
     </g>
     <g id="text_10">
      <!-- −1.00 -->
      <g transform="translate(10.664687 293.150754) scale(0.1 -0.1)">
       <use xlink:href="#DejaVuSans-2212"/>
       <use xlink:href="#DejaVuSans-31" x="83.789062"/>
       <use xlink:href="#DejaVuSans-2e" x="147.412109"/>
       <use xlink:href="#DejaVuSans-30" x="179.199219"/>
       <use xlink:href="#DejaVuSans-30" x="242.822266"/>
      </g>
     </g>
    </g>
    <g id="ytick_2">
     <g id="line2d_11">
      <g>
       <use xlink:href="#m9fbcaf5b91" x="48.31" y="257.342811" style="stroke: #000000; stroke-width: 0.8"/>
      </g>
     </g>
     <g id="text_11">
      <!-- −0.75 -->
      <g transform="translate(10.664687 261.14203) scale(0.1 -0.1)">
       <use xlink:href="#DejaVuSans-2212"/>
       <use xlink:href="#DejaVuSans-30" x="83.789062"/>
       <use xlink:href="#DejaVuSans-2e" x="147.412109"/>
       <use xlink:href="#DejaVuSans-37" x="179.199219"/>
       <use xlink:href="#DejaVuSans-35" x="242.822266"/>
      </g>
     </g>
    </g>
    <g id="ytick_3">
     <g id="line2d_12">
      <g>
       <use xlink:href="#m9fbcaf5b91" x="48.31" y="225.334088" style="stroke: #000000; stroke-width: 0.8"/>
      </g>
     </g>
     <g id="text_12">
      <!-- −0.50 -->
      <g transform="translate(10.664687 229.133306) scale(0.1 -0.1)">
       <use xlink:href="#DejaVuSans-2212"/>
       <use xlink:href="#DejaVuSans-30" x="83.789062"/>
       <use xlink:href="#DejaVuSans-2e" x="147.412109"/>
       <use xlink:href="#DejaVuSans-35" x="179.199219"/>
       <use xlink:href="#DejaVuSans-30" x="242.822266"/>
      </g>
     </g>
    </g>
    <g id="ytick_4">
     <g id="line2d_13">
      <g>
       <use xlink:href="#m9fbcaf5b91" x="48.31" y="193.325364" style="stroke: #000000; stroke-width: 0.8"/>
      </g>
     </g>
     <g id="text_13">
      <!-- −0.25 -->
      <g transform="translate(10.664687 197.124583) scale(0.1 -0.1)">
       <use xlink:href="#DejaVuSans-2212"/>
       <use xlink:href="#DejaVuSans-30" x="83.789062"/>
       <use xlink:href="#DejaVuSans-2e" x="147.412109"/>
       <use xlink:href="#DejaVuSans-32" x="179.199219"/>
       <use xlink:href="#DejaVuSans-35" x="242.822266"/>
      </g>
     </g>
    </g>
    <g id="ytick_5">
     <g id="line2d_14">
      <g>
       <use xlink:href="#m9fbcaf5b91" x="48.31" y="161.31664" style="stroke: #000000; stroke-width: 0.8"/>
      </g>
     </g>
     <g id="text_14">
      <!-- 0.00 -->
      <g transform="translate(19.044375 165.115859) scale(0.1 -0.1)">
       <use xlink:href="#DejaVuSans-30"/>
       <use xlink:href="#DejaVuSans-2e" x="63.623047"/>
       <use xlink:href="#DejaVuSans-30" x="95.410156"/>
       <use xlink:href="#DejaVuSans-30" x="159.033203"/>
      </g>
     </g>
    </g>
    <g id="ytick_6">
     <g id="line2d_15">
      <g>
       <use xlink:href="#m9fbcaf5b91" x="48.31" y="129.307916" style="stroke: #000000; stroke-width: 0.8"/>
      </g>
     </g>
     <g id="text_15">
      <!-- 0.25 -->
      <g transform="translate(19.044375 133.107135) scale(0.1 -0.1)">
       <use xlink:href="#DejaVuSans-30"/>
       <use xlink:href="#DejaVuSans-2e" x="63.623047"/>
       <use xlink:href="#DejaVuSans-32" x="95.410156"/>
       <use xlink:href="#DejaVuSans-35" x="159.033203"/>
      </g>
     </g>
    </g>
    <g id="ytick_7">
     <g id="line2d_16">
      <g>
       <use xlink:href="#m9fbcaf5b91" x="48.31" y="97.299192" style="stroke: #000000; stroke-width: 0.8"/>
      </g>
     </g>
     <g id="text_16">
      <!-- 0.50 -->
      <g transform="translate(19.044375 101.098411) scale(0.1 -0.1)">
       <use xlink:href="#DejaVuSans-30"/>
       <use xlink:href="#DejaVuSans-2e" x="63.623047"/>
       <use xlink:href="#DejaVuSans-35" x="95.410156"/>
       <use xlink:href="#DejaVuSans-30" x="159.033203"/>
      </g>
     </g>
    </g>
    <g id="ytick_8">
     <g id="line2d_17">
      <g>
       <use xlink:href="#m9fbcaf5b91" x="48.31" y="65.290469" style="stroke: #000000; stroke-width: 0.8"/>
      </g>
     </g>
     <g id="text_17">
      <!-- 0.75 -->
      <g transform="translate(19.044375 69.089687) scale(0.1 -0.1)">
       <use xlink:href="#DejaVuSans-30"/>
       <use xlink:href="#DejaVuSans-2e" x="63.623047"/>
       <use xlink:href="#DejaVuSans-37" x="95.410156"/>
       <use xlink:href="#DejaVuSans-35" x="159.033203"/>
      </g>
     </g>
    </g>
    <g id="ytick_9">
     <g id="line2d_18">
      <g>
       <use xlink:href="#m9fbcaf5b91" x="48.31" y="33.281745" style="stroke: #000000; stroke-width: 0.8"/>
      </g>
     </g>
     <g id="text_18">
      <!-- 1.00 -->
      <g transform="translate(19.044375 37.080964) scale(0.1 -0.1)">
       <use xlink:href="#DejaVuSans-31"/>
       <use xlink:href="#DejaVuSans-2e" x="63.623047"/>
       <use xlink:href="#DejaVuSans-30" x="95.410156"/>
       <use xlink:href="#DejaVuSans-30" x="159.033203"/>
      </g>
     </g>
    </g>
   </g>
   <g id="patch_3">
    <path d="M 48.31 295.75328 
L 48.31 26.88 
" style="fill: none; stroke: #000000; stroke-width: 0.8; stroke-linejoin: miter; stroke-linecap: square"/>
   </g>
   <g id="patch_4">
    <path d="M 447.432857 295.75328 
L 447.432857 26.88 
" style="fill: none; stroke: #000000; stroke-width: 0.8; stroke-linejoin: miter; stroke-linecap: square"/>
   </g>
   <g id="patch_5">
    <path d="M 48.31 295.75328 
L 447.432857 295.75328 
" style="fill: none; stroke: #000000; stroke-width: 0.8; stroke-linejoin: miter; stroke-linecap: square"/>
   </g>
   <g id="patch_6">
    <path d="M 48.31 26.88 
L 447.432857 26.88 
" style="fill: none; stroke: #000000; stroke-width: 0.8; stroke-linejoin: miter; stroke-linecap: square"/>
   </g>
   <g id="text_19">
    <!-- Time evolution in the state space of a 2D Hopfield network -->
    <g transform="translate(70.925804 20.88) scale(0.12 -0.12)">
     <defs>
      <path id="DejaVuSans-54" d="M -19 4666 
L 3928 4666 
L 3928 4134 
L 2272 4134 
L 2272 0 
L 1638 0 
L 1638 4134 
L -19 4134 
L -19 4666 
z
" transform="scale(0.015625)"/>
      <path id="DejaVuSans-69" d="M 603 3500 
L 1178 3500 
L 1178 0 
L 603 0 
L 603 3500 
z
M 603 4863 
L 1178 4863 
L 1178 4134 
L 603 4134 
L 603 4863 
z
" transform="scale(0.015625)"/>
      <path id="DejaVuSans-6d" d="M 3328 2828 
Q 3544 3216 3844 3400 
Q 4144 3584 4550 3584 
Q 5097 3584 5394 3201 
Q 5691 2819 5691 2113 
L 5691 0 
L 5113 0 
L 5113 2094 
Q 5113 2597 4934 2840 
Q 4756 3084 4391 3084 
Q 3944 3084 3684 2787 
Q 3425 2491 3425 1978 
L 3425 0 
L 2847 0 
L 2847 2094 
Q 2847 2600 2669 2842 
Q 2491 3084 2119 3084 
Q 1678 3084 1418 2786 
Q 1159 2488 1159 1978 
L 1159 0 
L 581 0 
L 581 3500 
L 1159 3500 
L 1159 2956 
Q 1356 3278 1631 3431 
Q 1906 3584 2284 3584 
Q 2666 3584 2933 3390 
Q 3200 3197 3328 2828 
z
" transform="scale(0.015625)"/>
      <path id="DejaVuSans-65" d="M 3597 1894 
L 3597 1613 
L 953 1613 
Q 991 1019 1311 708 
Q 1631 397 2203 397 
Q 2534 397 2845 478 
Q 3156 559 3463 722 
L 3463 178 
Q 3153 47 2828 -22 
Q 2503 -91 2169 -91 
Q 1331 -91 842 396 
Q 353 884 353 1716 
Q 353 2575 817 3079 
Q 1281 3584 2069 3584 
Q 2775 3584 3186 3129 
Q 3597 2675 3597 1894 
z
M 3022 2063 
Q 3016 2534 2758 2815 
Q 2500 3097 2075 3097 
Q 1594 3097 1305 2825 
Q 1016 2553 972 2059 
L 3022 2063 
z
" transform="scale(0.015625)"/>
      <path id="DejaVuSans-20" transform="scale(0.015625)"/>
      <path id="DejaVuSans-76" d="M 191 3500 
L 800 3500 
L 1894 563 
L 2988 3500 
L 3597 3500 
L 2284 0 
L 1503 0 
L 191 3500 
z
" transform="scale(0.015625)"/>
      <path id="DejaVuSans-6f" d="M 1959 3097 
Q 1497 3097 1228 2736 
Q 959 2375 959 1747 
Q 959 1119 1226 758 
Q 1494 397 1959 397 
Q 2419 397 2687 759 
Q 2956 1122 2956 1747 
Q 2956 2369 2687 2733 
Q 2419 3097 1959 3097 
z
M 1959 3584 
Q 2709 3584 3137 3096 
Q 3566 2609 3566 1747 
Q 3566 888 3137 398 
Q 2709 -91 1959 -91 
Q 1206 -91 779 398 
Q 353 888 353 1747 
Q 353 2609 779 3096 
Q 1206 3584 1959 3584 
z
" transform="scale(0.015625)"/>
      <path id="DejaVuSans-6c" d="M 603 4863 
L 1178 4863 
L 1178 0 
L 603 0 
L 603 4863 
z
" transform="scale(0.015625)"/>
      <path id="DejaVuSans-75" d="M 544 1381 
L 544 3500 
L 1119 3500 
L 1119 1403 
Q 1119 906 1312 657 
Q 1506 409 1894 409 
Q 2359 409 2629 706 
Q 2900 1003 2900 1516 
L 2900 3500 
L 3475 3500 
L 3475 0 
L 2900 0 
L 2900 538 
Q 2691 219 2414 64 
Q 2138 -91 1772 -91 
Q 1169 -91 856 284 
Q 544 659 544 1381 
z
M 1991 3584 
L 1991 3584 
z
" transform="scale(0.015625)"/>
      <path id="DejaVuSans-74" d="M 1172 4494 
L 1172 3500 
L 2356 3500 
L 2356 3053 
L 1172 3053 
L 1172 1153 
Q 1172 725 1289 603 
Q 1406 481 1766 481 
L 2356 481 
L 2356 0 
L 1766 0 
Q 1100 0 847 248 
Q 594 497 594 1153 
L 594 3053 
L 172 3053 
L 172 3500 
L 594 3500 
L 594 4494 
L 1172 4494 
z
" transform="scale(0.015625)"/>
      <path id="DejaVuSans-6e" d="M 3513 2113 
L 3513 0 
L 2938 0 
L 2938 2094 
Q 2938 2591 2744 2837 
Q 2550 3084 2163 3084 
Q 1697 3084 1428 2787 
Q 1159 2491 1159 1978 
L 1159 0 
L 581 0 
L 581 3500 
L 1159 3500 
L 1159 2956 
Q 1366 3272 1645 3428 
Q 1925 3584 2291 3584 
Q 2894 3584 3203 3211 
Q 3513 2838 3513 2113 
z
" transform="scale(0.015625)"/>
      <path id="DejaVuSans-68" d="M 3513 2113 
L 3513 0 
L 2938 0 
L 2938 2094 
Q 2938 2591 2744 2837 
Q 2550 3084 2163 3084 
Q 1697 3084 1428 2787 
Q 1159 2491 1159 1978 
L 1159 0 
L 581 0 
L 581 4863 
L 1159 4863 
L 1159 2956 
Q 1366 3272 1645 3428 
Q 1925 3584 2291 3584 
Q 2894 3584 3203 3211 
Q 3513 2838 3513 2113 
z
" transform="scale(0.015625)"/>
      <path id="DejaVuSans-73" d="M 2834 3397 
L 2834 2853 
Q 2591 2978 2328 3040 
Q 2066 3103 1784 3103 
Q 1356 3103 1142 2972 
Q 928 2841 928 2578 
Q 928 2378 1081 2264 
Q 1234 2150 1697 2047 
L 1894 2003 
Q 2506 1872 2764 1633 
Q 3022 1394 3022 966 
Q 3022 478 2636 193 
Q 2250 -91 1575 -91 
Q 1294 -91 989 -36 
Q 684 19 347 128 
L 347 722 
Q 666 556 975 473 
Q 1284 391 1588 391 
Q 1994 391 2212 530 
Q 2431 669 2431 922 
Q 2431 1156 2273 1281 
Q 2116 1406 1581 1522 
L 1381 1569 
Q 847 1681 609 1914 
Q 372 2147 372 2553 
Q 372 3047 722 3315 
Q 1072 3584 1716 3584 
Q 2034 3584 2315 3537 
Q 2597 3491 2834 3397 
z
" transform="scale(0.015625)"/>
      <path id="DejaVuSans-61" d="M 2194 1759 
Q 1497 1759 1228 1600 
Q 959 1441 959 1056 
Q 959 750 1161 570 
Q 1363 391 1709 391 
Q 2188 391 2477 730 
Q 2766 1069 2766 1631 
L 2766 1759 
L 2194 1759 
z
M 3341 1997 
L 3341 0 
L 2766 0 
L 2766 531 
Q 2569 213 2275 61 
Q 1981 -91 1556 -91 
Q 1019 -91 701 211 
Q 384 513 384 1019 
Q 384 1609 779 1909 
Q 1175 2209 1959 2209 
L 2766 2209 
L 2766 2266 
Q 2766 2663 2505 2880 
Q 2244 3097 1772 3097 
Q 1472 3097 1187 3025 
Q 903 2953 641 2809 
L 641 3341 
Q 956 3463 1253 3523 
Q 1550 3584 1831 3584 
Q 2591 3584 2966 3190 
Q 3341 2797 3341 1997 
z
" transform="scale(0.015625)"/>
      <path id="DejaVuSans-70" d="M 1159 525 
L 1159 -1331 
L 581 -1331 
L 581 3500 
L 1159 3500 
L 1159 2969 
Q 1341 3281 1617 3432 
Q 1894 3584 2278 3584 
Q 2916 3584 3314 3078 
Q 3713 2572 3713 1747 
Q 3713 922 3314 415 
Q 2916 -91 2278 -91 
Q 1894 -91 1617 61 
Q 1341 213 1159 525 
z
M 3116 1747 
Q 3116 2381 2855 2742 
Q 2594 3103 2138 3103 
Q 1681 3103 1420 2742 
Q 1159 2381 1159 1747 
Q 1159 1113 1420 752 
Q 1681 391 2138 391 
Q 2594 391 2855 752 
Q 3116 1113 3116 1747 
z
" transform="scale(0.015625)"/>
      <path id="DejaVuSans-63" d="M 3122 3366 
L 3122 2828 
Q 2878 2963 2633 3030 
Q 2388 3097 2138 3097 
Q 1578 3097 1268 2742 
Q 959 2388 959 1747 
Q 959 1106 1268 751 
Q 1578 397 2138 397 
Q 2388 397 2633 464 
Q 2878 531 3122 666 
L 3122 134 
Q 2881 22 2623 -34 
Q 2366 -91 2075 -91 
Q 1284 -91 818 406 
Q 353 903 353 1747 
Q 353 2603 823 3093 
Q 1294 3584 2113 3584 
Q 2378 3584 2631 3529 
Q 2884 3475 3122 3366 
z
" transform="scale(0.015625)"/>
      <path id="DejaVuSans-66" d="M 2375 4863 
L 2375 4384 
L 1825 4384 
Q 1516 4384 1395 4259 
Q 1275 4134 1275 3809 
L 1275 3500 
L 2222 3500 
L 2222 3053 
L 1275 3053 
L 1275 0 
L 697 0 
L 697 3053 
L 147 3053 
L 147 3500 
L 697 3500 
L 697 3744 
Q 697 4328 969 4595 
Q 1241 4863 1831 4863 
L 2375 4863 
z
" transform="scale(0.015625)"/>
      <path id="DejaVuSans-44" d="M 1259 4147 
L 1259 519 
L 2022 519 
Q 2988 519 3436 956 
Q 3884 1394 3884 2338 
Q 3884 3275 3436 3711 
Q 2988 4147 2022 4147 
L 1259 4147 
z
M 628 4666 
L 1925 4666 
Q 3281 4666 3915 4102 
Q 4550 3538 4550 2338 
Q 4550 1131 3912 565 
Q 3275 0 1925 0 
L 628 0 
L 628 4666 
z
" transform="scale(0.015625)"/>
      <path id="DejaVuSans-48" d="M 628 4666 
L 1259 4666 
L 1259 2753 
L 3553 2753 
L 3553 4666 
L 4184 4666 
L 4184 0 
L 3553 0 
L 3553 2222 
L 1259 2222 
L 1259 0 
L 628 0 
L 628 4666 
z
" transform="scale(0.015625)"/>
      <path id="DejaVuSans-64" d="M 2906 2969 
L 2906 4863 
L 3481 4863 
L 3481 0 
L 2906 0 
L 2906 525 
Q 2725 213 2448 61 
Q 2172 -91 1784 -91 
Q 1150 -91 751 415 
Q 353 922 353 1747 
Q 353 2572 751 3078 
Q 1150 3584 1784 3584 
Q 2172 3584 2448 3432 
Q 2725 3281 2906 2969 
z
M 947 1747 
Q 947 1113 1208 752 
Q 1469 391 1925 391 
Q 2381 391 2643 752 
Q 2906 1113 2906 1747 
Q 2906 2381 2643 2742 
Q 2381 3103 1925 3103 
Q 1469 3103 1208 2742 
Q 947 2381 947 1747 
z
" transform="scale(0.015625)"/>
      <path id="DejaVuSans-77" d="M 269 3500 
L 844 3500 
L 1563 769 
L 2278 3500 
L 2956 3500 
L 3675 769 
L 4391 3500 
L 4966 3500 
L 4050 0 
L 3372 0 
L 2619 2869 
L 1863 0 
L 1184 0 
L 269 3500 
z
" transform="scale(0.015625)"/>
      <path id="DejaVuSans-72" d="M 2631 2963 
Q 2534 3019 2420 3045 
Q 2306 3072 2169 3072 
Q 1681 3072 1420 2755 
Q 1159 2438 1159 1844 
L 1159 0 
L 581 0 
L 581 3500 
L 1159 3500 
L 1159 2956 
Q 1341 3275 1631 3429 
Q 1922 3584 2338 3584 
Q 2397 3584 2469 3576 
Q 2541 3569 2628 3553 
L 2631 2963 
z
" transform="scale(0.015625)"/>
      <path id="DejaVuSans-6b" d="M 581 4863 
L 1159 4863 
L 1159 1991 
L 2875 3500 
L 3609 3500 
L 1753 1863 
L 3688 0 
L 2938 0 
L 1159 1709 
L 1159 0 
L 581 0 
L 581 4863 
z
" transform="scale(0.015625)"/>
     </defs>
     <use xlink:href="#DejaVuSans-54"/>
     <use xlink:href="#DejaVuSans-69" x="57.958984"/>
     <use xlink:href="#DejaVuSans-6d" x="85.742188"/>
     <use xlink:href="#DejaVuSans-65" x="183.154297"/>
     <use xlink:href="#DejaVuSans-20" x="244.677734"/>
     <use xlink:href="#DejaVuSans-65" x="276.464844"/>
     <use xlink:href="#DejaVuSans-76" x="337.988281"/>
     <use xlink:href="#DejaVuSans-6f" x="397.167969"/>
     <use xlink:href="#DejaVuSans-6c" x="458.349609"/>
     <use xlink:href="#DejaVuSans-75" x="486.132812"/>
     <use xlink:href="#DejaVuSans-74" x="549.511719"/>
     <use xlink:href="#DejaVuSans-69" x="588.720703"/>
     <use xlink:href="#DejaVuSans-6f" x="616.503906"/>
     <use xlink:href="#DejaVuSans-6e" x="677.685547"/>
     <use xlink:href="#DejaVuSans-20" x="741.064453"/>
     <use xlink:href="#DejaVuSans-69" x="772.851562"/>
     <use xlink:href="#DejaVuSans-6e" x="800.634766"/>
     <use xlink:href="#DejaVuSans-20" x="864.013672"/>
     <use xlink:href="#DejaVuSans-74" x="895.800781"/>
     <use xlink:href="#DejaVuSans-68" x="935.009766"/>
     <use xlink:href="#DejaVuSans-65" x="998.388672"/>
     <use xlink:href="#DejaVuSans-20" x="1059.912109"/>
     <use xlink:href="#DejaVuSans-73" x="1091.699219"/>
     <use xlink:href="#DejaVuSans-74" x="1143.798828"/>
     <use xlink:href="#DejaVuSans-61" x="1183.007812"/>
     <use xlink:href="#DejaVuSans-74" x="1244.287109"/>
     <use xlink:href="#DejaVuSans-65" x="1283.496094"/>
     <use xlink:href="#DejaVuSans-20" x="1345.019531"/>
     <use xlink:href="#DejaVuSans-73" x="1376.806641"/>
     <use xlink:href="#DejaVuSans-70" x="1428.90625"/>
     <use xlink:href="#DejaVuSans-61" x="1492.382812"/>
     <use xlink:href="#DejaVuSans-63" x="1553.662109"/>
     <use xlink:href="#DejaVuSans-65" x="1608.642578"/>
     <use xlink:href="#DejaVuSans-20" x="1670.166016"/>
     <use xlink:href="#DejaVuSans-6f" x="1701.953125"/>
     <use xlink:href="#DejaVuSans-66" x="1763.134766"/>
     <use xlink:href="#DejaVuSans-20" x="1798.339844"/>
     <use xlink:href="#DejaVuSans-61" x="1830.126953"/>
     <use xlink:href="#DejaVuSans-20" x="1891.40625"/>
     <use xlink:href="#DejaVuSans-32" x="1923.193359"/>
     <use xlink:href="#DejaVuSans-44" x="1986.816406"/>
     <use xlink:href="#DejaVuSans-20" x="2063.818359"/>
     <use xlink:href="#DejaVuSans-48" x="2095.605469"/>
     <use xlink:href="#DejaVuSans-6f" x="2170.800781"/>
     <use xlink:href="#DejaVuSans-70" x="2231.982422"/>
     <use xlink:href="#DejaVuSans-66" x="2295.458984"/>
     <use xlink:href="#DejaVuSans-69" x="2330.664062"/>
     <use xlink:href="#DejaVuSans-65" x="2358.447266"/>
     <use xlink:href="#DejaVuSans-6c" x="2419.970703"/>
     <use xlink:href="#DejaVuSans-64" x="2447.753906"/>
     <use xlink:href="#DejaVuSans-20" x="2511.230469"/>
     <use xlink:href="#DejaVuSans-6e" x="2543.017578"/>
     <use xlink:href="#DejaVuSans-65" x="2606.396484"/>
     <use xlink:href="#DejaVuSans-74" x="2667.919922"/>
     <use xlink:href="#DejaVuSans-77" x="2707.128906"/>
     <use xlink:href="#DejaVuSans-6f" x="2788.916016"/>
     <use xlink:href="#DejaVuSans-72" x="2850.097656"/>
     <use xlink:href="#DejaVuSans-6b" x="2891.210938"/>
    </g>
   </g>
   <g id="legend_1">
    <g id="patch_7">
     <path d="M 90.726116 334.563802 
L 405.016741 334.563802 
Q 407.016741 334.563802 407.016741 332.563802 
L 407.016741 318.885677 
Q 407.016741 316.885677 405.016741 316.885677 
L 90.726116 316.885677 
Q 88.726116 316.885677 88.726116 318.885677 
L 88.726116 332.563802 
Q 88.726116 334.563802 90.726116 334.563802 
z
" style="fill: #ffffff; opacity: 0.8; stroke: #cccccc; stroke-linejoin: miter"/>
    </g>
    <g id="line2d_19">
     <path d="M 92.726116 324.984114 
L 112.726116 324.984114 
" style="fill: none; stroke: #0000ff; stroke-width: 1.5"/>
    </g>
    <g id="text_20">
     <!-- State Evolution -->
     <g transform="translate(120.726116 328.484114) scale(0.1 -0.1)">
      <defs>
       <path id="DejaVuSans-53" d="M 3425 4513 
L 3425 3897 
Q 3066 4069 2747 4153 
Q 2428 4238 2131 4238 
Q 1616 4238 1336 4038 
Q 1056 3838 1056 3469 
Q 1056 3159 1242 3001 
Q 1428 2844 1947 2747 
L 2328 2669 
Q 3034 2534 3370 2195 
Q 3706 1856 3706 1288 
Q 3706 609 3251 259 
Q 2797 -91 1919 -91 
Q 1588 -91 1214 -16 
Q 841 59 441 206 
L 441 856 
Q 825 641 1194 531 
Q 1563 422 1919 422 
Q 2459 422 2753 634 
Q 3047 847 3047 1241 
Q 3047 1584 2836 1778 
Q 2625 1972 2144 2069 
L 1759 2144 
Q 1053 2284 737 2584 
Q 422 2884 422 3419 
Q 422 4038 858 4394 
Q 1294 4750 2059 4750 
Q 2388 4750 2728 4690 
Q 3069 4631 3425 4513 
z
" transform="scale(0.015625)"/>
       <path id="DejaVuSans-45" d="M 628 4666 
L 3578 4666 
L 3578 4134 
L 1259 4134 
L 1259 2753 
L 3481 2753 
L 3481 2222 
L 1259 2222 
L 1259 531 
L 3634 531 
L 3634 0 
L 628 0 
L 628 4666 
z
" transform="scale(0.015625)"/>
      </defs>
      <use xlink:href="#DejaVuSans-53"/>
      <use xlink:href="#DejaVuSans-74" x="63.476562"/>
      <use xlink:href="#DejaVuSans-61" x="102.685547"/>
      <use xlink:href="#DejaVuSans-74" x="163.964844"/>
      <use xlink:href="#DejaVuSans-65" x="203.173828"/>
      <use xlink:href="#DejaVuSans-20" x="264.697266"/>
      <use xlink:href="#DejaVuSans-45" x="296.484375"/>
      <use xlink:href="#DejaVuSans-76" x="359.667969"/>
      <use xlink:href="#DejaVuSans-6f" x="418.847656"/>
      <use xlink:href="#DejaVuSans-6c" x="480.029297"/>
      <use xlink:href="#DejaVuSans-75" x="507.8125"/>
      <use xlink:href="#DejaVuSans-74" x="571.191406"/>
      <use xlink:href="#DejaVuSans-69" x="610.400391"/>
      <use xlink:href="#DejaVuSans-6f" x="638.183594"/>
      <use xlink:href="#DejaVuSans-6e" x="699.365234"/>
     </g>
    </g>
    <g id="PathCollection_3">
     <g>
      <use xlink:href="#mce9fef0b4c" x="227.001116" y="325.859114" style="fill: #008000; stroke: #008000"/>
     </g>
    </g>
    <g id="text_21">
     <!-- Initial State -->
     <g transform="translate(245.001116 328.484114) scale(0.1 -0.1)">
      <defs>
       <path id="DejaVuSans-49" d="M 628 4666 
L 1259 4666 
L 1259 0 
L 628 0 
L 628 4666 
z
" transform="scale(0.015625)"/>
      </defs>
      <use xlink:href="#DejaVuSans-49"/>
      <use xlink:href="#DejaVuSans-6e" x="29.492188"/>
      <use xlink:href="#DejaVuSans-69" x="92.871094"/>
      <use xlink:href="#DejaVuSans-74" x="120.654297"/>
      <use xlink:href="#DejaVuSans-69" x="159.863281"/>
      <use xlink:href="#DejaVuSans-61" x="187.646484"/>
      <use xlink:href="#DejaVuSans-6c" x="248.925781"/>
      <use xlink:href="#DejaVuSans-20" x="276.708984"/>
      <use xlink:href="#DejaVuSans-53" x="308.496094"/>
      <use xlink:href="#DejaVuSans-74" x="371.972656"/>
      <use xlink:href="#DejaVuSans-61" x="411.181641"/>
      <use xlink:href="#DejaVuSans-74" x="472.460938"/>
      <use xlink:href="#DejaVuSans-65" x="511.669922"/>
     </g>
    </g>
    <g id="PathCollection_4">
     <g>
      <use xlink:href="#m5aeb503563" x="332.319866" y="325.859114" style="fill: #ff0000; stroke: #ff0000; stroke-width: 1.5"/>
     </g>
    </g>
    <g id="text_22">
     <!-- Final State -->
     <g transform="translate(350.319866 328.484114) scale(0.1 -0.1)">
      <defs>
       <path id="DejaVuSans-46" d="M 628 4666 
L 3309 4666 
L 3309 4134 
L 1259 4134 
L 1259 2759 
L 3109 2759 
L 3109 2228 
L 1259 2228 
L 1259 0 
L 628 0 
L 628 4666 
z
" transform="scale(0.015625)"/>
      </defs>
      <use xlink:href="#DejaVuSans-46"/>
      <use xlink:href="#DejaVuSans-69" x="50.269531"/>
      <use xlink:href="#DejaVuSans-6e" x="78.052734"/>
      <use xlink:href="#DejaVuSans-61" x="141.431641"/>
      <use xlink:href="#DejaVuSans-6c" x="202.710938"/>
      <use xlink:href="#DejaVuSans-20" x="230.494141"/>
      <use xlink:href="#DejaVuSans-53" x="262.28125"/>
      <use xlink:href="#DejaVuSans-74" x="325.757812"/>
      <use xlink:href="#DejaVuSans-61" x="364.966797"/>
      <use xlink:href="#DejaVuSans-74" x="426.246094"/>
      <use xlink:href="#DejaVuSans-65" x="465.455078"/>
     </g>
    </g>
   </g>
  </g>
 </g>
 <defs>
  <clipPath id="pabd126d5e8">
   <rect x="48.31" y="26.88" width="399.122857" height="268.87328"/>
  </clipPath>
 </defs>
</svg>
